# Blender v2.91.0 OBJ File: 'chairComfy.blend'
# www.blender.org
mtllib chairComfy.mtl
o Plane
v -0.574963 0.205845 0.793135
v 0.574963 0.205845 0.793135
v -0.549857 0.306697 -0.470899
v 0.549857 0.306697 -0.470899
v -0.544836 1.344250 -0.723706
v 0.544836 1.344250 -0.723706
v -0.995230 0.459732 0.601232
v 0.995230 0.459732 0.601232
v -0.919736 0.709583 -0.181612
v 0.919736 0.709583 -0.181612
v -0.873781 1.403240 -0.444906
v 0.873781 1.403240 -0.444906
v -0.560527 0.168455 0.066315
v -0.000000 0.158426 0.793135
v 0.560527 0.168455 0.066315
v 0.000000 0.246264 -0.514293
v -0.000000 1.298739 -0.775778
v -0.545463 0.737658 -0.692105
v 0.545463 0.737658 -0.692105
v -0.974214 0.537517 0.208287
v 0.974214 0.537517 0.208287
v -0.891365 1.077227 -0.360871
v 0.891365 1.077227 -0.360871
v 0.826026 0.477924 -0.347952
v 0.894940 0.332294 0.768767
v -0.894940 0.332294 0.768767
v -0.826026 0.477924 -0.347952
v -0.808325 1.442161 -0.584848
v 0.808325 1.442161 -0.584848
v -0.000000 0.111911 0.041364
v 0.000000 0.682067 -0.743092
v 0.857779 0.327348 0.132949
v -0.857779 0.327348 0.132949
v -0.811961 0.889993 -0.549089
v 0.811961 0.889993 -0.549089
v -0.615836 0.052673 0.798611
v 0.615836 0.052673 0.798611
v -0.605684 0.191262 -0.564279
v 0.605684 0.191262 -0.564279
v -0.595720 1.336098 -0.873726
v 0.595720 1.336098 -0.873726
v -1.126500 0.371736 0.587580
v 1.126500 0.371736 0.587580
v -1.068477 0.675938 -0.225264
v 1.068477 0.675938 -0.225264
v -1.019642 1.398288 -0.507050
v 1.019642 1.398288 -0.507050
v -0.608061 0.018199 0.048297
v -0.000000 0.000051 0.801980
v 0.608061 0.018198 0.048297
v 0.000000 0.121670 -0.612469
v -0.000000 1.290427 -0.934182
v -0.597815 0.697516 -0.836359
v 0.597815 0.697516 -0.836359
v -1.114033 0.466339 0.184943
v 1.114033 0.466339 0.184943
v -1.038528 1.067521 -0.419264
v 1.038528 1.067521 -0.419264
v 0.947076 0.402694 -0.417581
v 0.986499 0.202810 0.765320
v -0.986499 0.202810 0.765320
v -0.947076 0.402694 -0.417581
v -0.925822 1.435432 -0.691202
v 0.925822 1.435432 -0.691202
v -0.000000 -0.045952 0.025834
v 0.000000 0.638991 -0.895755
v 0.969535 0.216899 0.111198
v -0.969535 0.216899 0.111198
v -0.931148 0.867453 -0.651303
v 0.931148 0.867453 -0.651303
v 0.950663 -0.744398 0.571502
v 0.735467 0.118508 0.392530
v 0.994936 -0.744490 0.586183
v 0.812878 0.146536 0.421604
v 1.015863 -0.744061 0.627867
v 0.844943 0.169498 0.499500
v 1.001185 -0.743363 0.672136
v 0.812878 0.173943 0.580589
v 0.959500 -0.742804 0.693058
v 0.735467 0.157267 0.617369
v 0.915226 -0.742713 0.678376
v 0.658057 0.129239 0.588295
v 0.894299 -0.743141 0.636692
v 0.625992 0.106278 0.510399
v 0.908977 -0.743840 0.592423
v 0.658057 0.101833 0.429310
v -0.950663 -0.744398 0.571502
v -0.735467 0.118508 0.392530
v -0.994936 -0.744490 0.586183
v -0.812878 0.146536 0.421604
v -1.015863 -0.744061 0.627867
v -0.844943 0.169498 0.499500
v -1.001185 -0.743363 0.672136
v -0.812878 0.173943 0.580589
v -0.959500 -0.742804 0.693058
v -0.735467 0.157267 0.617369
v -0.915226 -0.742713 0.678376
v -0.658057 0.129239 0.588295
v -0.894299 -0.743141 0.636692
v -0.625992 0.106278 0.510399
v -0.908977 -0.743840 0.592423
v -0.658057 0.101833 0.429310
v 0.950663 -0.744398 -0.425257
v 0.735467 0.275782 -0.246285
v 0.994936 -0.744490 -0.439938
v 0.812878 0.303810 -0.275359
v 1.015863 -0.744061 -0.481622
v 0.844943 0.326771 -0.353256
v 1.001185 -0.743363 -0.525891
v 0.812878 0.331216 -0.434344
v 0.959500 -0.742804 -0.546813
v 0.735467 0.314541 -0.471124
v 0.915226 -0.742713 -0.532132
v 0.658057 0.286513 -0.442050
v 0.894299 -0.743141 -0.490448
v 0.625992 0.263551 -0.364154
v 0.908977 -0.743840 -0.446179
v 0.658057 0.259106 -0.283065
v -0.950663 -0.744398 -0.425257
v -0.735467 0.275782 -0.246285
v -0.994936 -0.744490 -0.439938
v -0.812878 0.303810 -0.275359
v -1.015863 -0.744061 -0.481622
v -0.844943 0.326771 -0.353256
v -1.001185 -0.743363 -0.525891
v -0.812878 0.331216 -0.434344
v -0.959500 -0.742804 -0.546813
v -0.735467 0.314541 -0.471124
v -0.915226 -0.742713 -0.532132
v -0.658057 0.286513 -0.442050
v -0.894299 -0.743141 -0.490448
v -0.625992 0.263551 -0.364154
v -0.908977 -0.743840 -0.446179
v -0.658057 0.259106 -0.283065
vt 0.166667 0.000000
vt 0.500000 0.000000
vt 0.500000 0.479167
vt 0.166667 0.479167
vt 0.833333 0.000000
vt 0.833333 0.479167
vt 0.833333 0.833333
vt 0.500000 0.833333
vt 0.166667 0.833333
vt 0.500000 0.979167
vt 0.166667 0.979167
vt 0.833333 0.979167
vt 0.833333 1.000000
vt 0.500000 1.000000
vt 0.166667 1.000000
vt 0.979167 0.479167
vt 0.979167 0.833333
vt 0.979167 0.000000
vt 1.000000 0.000000
vt 1.000000 0.479167
vt 1.000000 0.833333
vt 0.020833 0.479167
vt 0.020833 0.000000
vt 0.020833 0.833333
vt 0.000000 0.833333
vt 0.000000 0.479167
vt 0.000000 0.000000
vt 0.020833 0.979167
vt 0.020833 1.000000
vt 0.000000 1.000000
vt 0.000000 0.979167
vt 0.979167 0.979167
vt 0.979167 1.000000
vt 1.000000 0.979167
vt 1.000000 1.000000
vt 0.166667 0.000000
vt 0.166667 0.479167
vt 0.500000 0.479167
vt 0.500000 0.000000
vt 0.833333 0.479167
vt 0.833333 0.000000
vt 0.500000 0.833333
vt 0.833333 0.833333
vt 0.166667 0.833333
vt 0.166667 0.979167
vt 0.500000 0.979167
vt 0.833333 0.979167
vt 0.500000 1.000000
vt 0.833333 1.000000
vt 0.166667 1.000000
vt 0.979167 0.833333
vt 0.979167 0.479167
vt 0.979167 0.000000
vt 1.000000 0.479167
vt 1.000000 0.000000
vt 1.000000 0.833333
vt 0.020833 0.000000
vt 0.020833 0.479167
vt 0.020833 0.833333
vt 0.000000 0.479167
vt 0.000000 0.833333
vt 0.000000 0.000000
vt 0.020833 0.979167
vt 0.020833 1.000000
vt 0.000000 0.979167
vt 0.000000 1.000000
vt 0.979167 1.000000
vt 0.979167 0.979167
vt 1.000000 0.979167
vt 1.000000 1.000000
vt 1.000000 0.500000
vt 1.000000 1.000000
vt 0.875000 1.000000
vt 0.875000 0.500000
vt 0.750000 1.000000
vt 0.750000 0.500000
vt 0.625000 1.000000
vt 0.625000 0.500000
vt 0.500000 1.000000
vt 0.500000 0.500000
vt 0.375000 1.000000
vt 0.375000 0.500000
vt 0.250000 1.000000
vt 0.250000 0.500000
vt 0.419706 0.419706
vt 0.250000 0.490000
vt 0.080294 0.419706
vt 0.010000 0.250000
vt 0.080294 0.080294
vt 0.250000 0.010000
vt 0.419706 0.080294
vt 0.490000 0.250000
vt 0.125000 1.000000
vt 0.125000 0.500000
vt 0.000000 1.000000
vt 0.000000 0.500000
vt 0.750000 0.490000
vt 0.919706 0.419706
vt 0.990000 0.250000
vt 0.919706 0.080294
vt 0.750000 0.010000
vt 0.580294 0.080294
vt 0.510000 0.250000
vt 0.580294 0.419706
vt 1.000000 0.500000
vt 0.875000 0.500000
vt 0.875000 1.000000
vt 1.000000 1.000000
vt 0.750000 0.500000
vt 0.750000 1.000000
vt 0.625000 0.500000
vt 0.625000 1.000000
vt 0.500000 0.500000
vt 0.500000 1.000000
vt 0.375000 0.500000
vt 0.375000 1.000000
vt 0.250000 0.500000
vt 0.250000 1.000000
vt 0.419706 0.419706
vt 0.490000 0.250000
vt 0.419706 0.080294
vt 0.250000 0.010000
vt 0.080294 0.080294
vt 0.010000 0.250000
vt 0.080294 0.419706
vt 0.250000 0.490000
vt 0.125000 0.500000
vt 0.125000 1.000000
vt 0.000000 0.500000
vt 0.000000 1.000000
vt 0.750000 0.490000
vt 0.580294 0.419706
vt 0.510000 0.250000
vt 0.580294 0.080294
vt 0.750000 0.010000
vt 0.919706 0.080294
vt 0.990000 0.250000
vt 0.919706 0.419706
vt 1.000000 0.500000
vt 0.875000 0.500000
vt 0.875000 1.000000
vt 1.000000 1.000000
vt 0.750000 0.500000
vt 0.750000 1.000000
vt 0.625000 0.500000
vt 0.625000 1.000000
vt 0.500000 0.500000
vt 0.500000 1.000000
vt 0.375000 0.500000
vt 0.375000 1.000000
vt 0.250000 0.500000
vt 0.250000 1.000000
vt 0.419706 0.419706
vt 0.490000 0.250000
vt 0.419706 0.080294
vt 0.250000 0.010000
vt 0.080294 0.080294
vt 0.010000 0.250000
vt 0.080294 0.419706
vt 0.250000 0.490000
vt 0.125000 0.500000
vt 0.125000 1.000000
vt 0.000000 0.500000
vt 0.000000 1.000000
vt 0.750000 0.490000
vt 0.580294 0.419706
vt 0.510000 0.250000
vt 0.580294 0.080294
vt 0.750000 0.010000
vt 0.919706 0.080294
vt 0.990000 0.250000
vt 0.919706 0.419706
vt 1.000000 0.500000
vt 1.000000 1.000000
vt 0.875000 1.000000
vt 0.875000 0.500000
vt 0.750000 1.000000
vt 0.750000 0.500000
vt 0.625000 1.000000
vt 0.625000 0.500000
vt 0.500000 1.000000
vt 0.500000 0.500000
vt 0.375000 1.000000
vt 0.375000 0.500000
vt 0.250000 1.000000
vt 0.250000 0.500000
vt 0.419706 0.419706
vt 0.250000 0.490000
vt 0.080294 0.419706
vt 0.010000 0.250000
vt 0.080294 0.080294
vt 0.250000 0.010000
vt 0.419706 0.080294
vt 0.490000 0.250000
vt 0.125000 1.000000
vt 0.125000 0.500000
vt 0.000000 1.000000
vt 0.000000 0.500000
vt 0.750000 0.490000
vt 0.919706 0.419706
vt 0.990000 0.250000
vt 0.919706 0.080294
vt 0.750000 0.010000
vt 0.580294 0.080294
vt 0.510000 0.250000
vt 0.580294 0.419706
vn 0.0898 0.9944 -0.0556
vn -0.0898 0.9944 -0.0556
vn -0.1164 0.9634 0.2414
vn 0.1164 0.9634 0.2414
vn 0.1243 0.4567 0.8809
vn -0.1243 0.4567 0.8809
vn -0.0988 0.0522 0.9937
vn 0.0988 0.0522 0.9937
vn -0.5438 0.8011 0.2499
vn -0.4189 0.9080 -0.0123
vn -0.8276 0.5548 0.0861
vn -0.9225 0.3233 0.2111
vn 0.4189 0.9080 -0.0123
vn 0.5438 0.8011 0.2499
vn 0.9225 0.3233 0.2111
vn 0.8276 0.5548 0.0861
vn 0.5740 0.3567 0.7371
vn 0.4869 0.0489 0.8721
vn 0.9195 0.0312 0.3918
vn 0.9380 0.1094 0.3288
vn -0.4869 0.0489 0.8721
vn -0.5740 0.3567 0.7371
vn -0.9380 0.1094 0.3288
vn -0.9195 0.0312 0.3918
vn -0.0940 -0.9942 0.0519
vn 0.0940 -0.9942 0.0519
vn 0.1207 -0.9577 -0.2611
vn -0.1207 -0.9577 -0.2611
vn -0.1282 -0.4722 -0.8721
vn 0.1282 -0.4722 -0.8721
vn 0.1048 -0.0582 -0.9928
vn -0.1048 -0.0582 -0.9928
vn 0.5435 -0.7973 -0.2625
vn 0.4299 -0.9028 0.0055
vn 0.8146 -0.5743 -0.0818
vn 0.9103 -0.3537 -0.2149
vn -0.4299 -0.9028 0.0055
vn -0.5435 -0.7973 -0.2625
vn -0.9103 -0.3537 -0.2149
vn -0.8146 -0.5743 -0.0818
vn -0.5696 -0.3687 -0.7346
vn -0.5001 -0.0523 -0.8644
vn -0.9052 -0.0358 -0.4236
vn -0.9256 -0.1282 -0.3560
vn 0.5001 -0.0523 -0.8644
vn 0.5696 -0.3687 -0.7346
vn 0.9256 -0.1282 -0.3560
vn 0.9052 -0.0358 -0.4236
vn 0.0010 0.0458 0.9990
vn -0.0010 0.0458 0.9990
vn -0.0731 0.9952 -0.0652
vn 0.0731 0.9952 -0.0652
vn -0.3910 0.8488 0.3560
vn -0.5160 0.8414 0.1606
vn 0.5160 0.8414 0.1606
vn 0.3910 0.8488 0.3560
vn -0.3788 0.2539 0.8900
vn -0.3499 0.4348 0.8298
vn 0.3499 0.4348 0.8298
vn 0.3788 0.2539 0.8900
vn 0.0677 0.0389 0.9970
vn 0.4998 0.4541 0.7376
vn -0.4998 0.4541 0.7376
vn -0.0677 0.0389 0.9970
vn 0.2125 0.9575 -0.1951
vn -0.1445 0.9768 0.1582
vn 0.1445 0.9768 0.1582
vn -0.2125 0.9575 -0.1951
vn 0.3571 -0.1010 -0.9286
vn 0.9009 0.1080 -0.4204
vn 0.9170 0.2199 0.3329
vn 0.4099 0.1754 0.8951
vn -0.3376 -0.0036 0.9413
vn -0.8770 -0.2136 0.4304
vn -0.2812 0.9457 -0.1630
vn -0.8898 -0.3269 -0.3184
vn -0.3873 -0.2814 -0.8780
vn -0.0066 -0.9999 0.0136
vn -0.3571 -0.1010 -0.9286
vn -0.9009 0.1080 -0.4204
vn -0.9170 0.2199 0.3329
vn -0.4099 0.1754 0.8951
vn 0.3376 -0.0036 0.9413
vn 0.8770 -0.2136 0.4304
vn 0.2812 0.9457 -0.1630
vn 0.8898 -0.3269 -0.3184
vn 0.3873 -0.2814 -0.8780
vn 0.0066 -0.9999 0.0136
vn 0.3546 -0.0865 0.9310
vn 0.9035 0.0926 0.4185
vn 0.9226 0.1890 -0.3363
vn 0.4145 0.1506 -0.8975
vn -0.3377 -0.0031 -0.9412
vn -0.8851 -0.1830 -0.4280
vn -0.2812 0.9457 0.1630
vn -0.9032 -0.2802 0.3253
vn -0.3965 -0.2411 0.8858
vn -0.0066 -0.9999 -0.0136
vn -0.3546 -0.0865 0.9310
vn -0.9035 0.0926 0.4185
vn -0.9226 0.1890 -0.3363
vn -0.4145 0.1506 -0.8975
vn 0.3377 -0.0031 -0.9412
vn 0.8851 -0.1830 -0.4280
vn 0.2812 0.9457 0.1630
vn 0.9032 -0.2802 0.3253
vn 0.3965 -0.2411 0.8858
vn 0.0066 -0.9999 -0.0136
usemtl Material.001
s off
f 1/1/1 14/2/1 30/3/1 13/4/1
f 14/2/2 2/5/2 15/6/2 30/3/2
f 30/3/3 15/6/3 4/7/3 16/8/3
f 13/4/4 30/3/4 16/8/4 3/9/4
f 3/9/5 16/8/5 31/10/5 18/11/5
f 16/8/6 4/7/6 19/12/6 31/10/6
f 31/10/7 19/12/7 6/13/7 17/14/7
f 18/11/8 31/10/8 17/14/8 5/15/8
f 4/7/9 15/6/9 32/16/9 24/17/9
f 15/6/10 2/5/10 25/18/10 32/16/10
f 32/16/11 25/18/11 8/19/11 21/20/11
f 24/17/12 32/16/12 21/20/12 10/21/12
f 1/1/13 13/4/13 33/22/13 26/23/13
f 13/4/14 3/9/14 27/24/14 33/22/14
f 33/22/15 27/24/15 9/25/15 20/26/15
f 26/23/16 33/22/16 20/26/16 7/27/16
f 3/9/17 18/11/17 34/28/17 27/24/17
f 18/11/18 5/15/18 28/29/18 34/28/18
f 34/28/19 28/29/19 11/30/19 22/31/19
f 27/24/20 34/28/20 22/31/20 9/25/20
f 6/13/21 19/12/21 35/32/21 29/33/21
f 19/12/22 4/7/22 24/17/22 35/32/22
f 35/32/23 24/17/23 10/21/23 23/34/23
f 29/33/24 35/32/24 23/34/24 12/35/24
f 36/36/25 48/37/25 65/38/25 49/39/25
f 49/39/26 65/38/26 50/40/26 37/41/26
f 65/38/27 51/42/27 39/43/27 50/40/27
f 48/37/28 38/44/28 51/42/28 65/38/28
f 38/44/29 53/45/29 66/46/29 51/42/29
f 51/42/30 66/46/30 54/47/30 39/43/30
f 66/46/31 52/48/31 41/49/31 54/47/31
f 53/45/32 40/50/32 52/48/32 66/46/32
f 39/43/33 59/51/33 67/52/33 50/40/33
f 50/40/34 67/52/34 60/53/34 37/41/34
f 67/52/35 56/54/35 43/55/35 60/53/35
f 59/51/36 45/56/36 56/54/36 67/52/36
f 36/36/37 61/57/37 68/58/37 48/37/37
f 48/37/38 68/58/38 62/59/38 38/44/38
f 68/58/39 55/60/39 44/61/39 62/59/39
f 61/57/40 42/62/40 55/60/40 68/58/40
f 38/44/41 62/59/41 69/63/41 53/45/41
f 53/45/42 69/63/42 63/64/42 40/50/42
f 69/63/43 57/65/43 46/66/43 63/64/43
f 62/59/44 44/61/44 57/65/44 69/63/44
f 41/49/45 64/67/45 70/68/45 54/47/45
f 54/47/46 70/68/46 59/51/46 39/43/46
f 70/68/47 58/69/47 45/56/47 59/51/47
f 64/67/48 47/70/48 58/69/48 70/68/48
f 14/2/49 1/1/49 36/36/49 49/39/49
f 2/5/50 14/2/50 49/39/50 37/41/50
f 17/14/51 6/13/51 41/49/51 52/48/51
f 5/15/52 17/14/52 52/48/52 40/50/52
f 20/26/53 9/25/53 44/61/53 55/60/53
f 7/27/54 20/26/54 55/60/54 42/62/54
f 21/20/55 8/19/55 43/55/55 56/54/55
f 10/21/56 21/20/56 56/54/56 45/56/56
f 22/31/57 11/30/57 46/66/57 57/65/57
f 9/25/58 22/31/58 57/65/58 44/61/58
f 23/34/59 10/21/59 45/56/59 58/69/59
f 12/35/60 23/34/60 58/69/60 47/70/60
f 25/18/61 2/5/61 37/41/61 60/53/61
f 8/19/62 25/18/62 60/53/62 43/55/62
f 26/23/63 7/27/63 42/62/63 61/57/63
f 1/1/64 26/23/64 61/57/64 36/36/64
f 28/29/65 5/15/65 40/50/65 63/64/65
f 11/30/66 28/29/66 63/64/66 46/66/66
f 29/33/67 12/35/67 47/70/67 64/67/67
f 6/13/68 29/33/68 64/67/68 41/49/68
usemtl Material.002
f 71/71/69 72/72/69 74/73/69 73/74/69
f 73/74/70 74/73/70 76/75/70 75/76/70
f 75/76/71 76/75/71 78/77/71 77/78/71
f 77/78/72 78/77/72 80/79/72 79/80/72
f 79/80/73 80/79/73 82/81/73 81/82/73
f 81/82/74 82/81/74 84/83/74 83/84/74
f 74/85/75 72/86/75 86/87/75 84/88/75 82/89/75 80/90/75 78/91/75 76/92/75
f 83/84/76 84/83/76 86/93/76 85/94/76
f 85/94/77 86/93/77 72/95/77 71/96/77
f 71/97/78 73/98/78 75/99/78 77/100/78 79/101/78 81/102/78 83/103/78 85/104/78
f 87/105/79 89/106/79 90/107/79 88/108/79
f 89/106/80 91/109/80 92/110/80 90/107/80
f 91/109/81 93/111/81 94/112/81 92/110/81
f 93/111/82 95/113/82 96/114/82 94/112/82
f 95/113/83 97/115/83 98/116/83 96/114/83
f 97/115/84 99/117/84 100/118/84 98/116/84
f 90/119/85 92/120/85 94/121/85 96/122/85 98/123/85 100/124/85 102/125/85 88/126/85
f 99/117/86 101/127/86 102/128/86 100/118/86
f 101/127/87 87/129/87 88/130/87 102/128/87
f 87/131/88 101/132/88 99/133/88 97/134/88 95/135/88 93/136/88 91/137/88 89/138/88
f 103/139/89 105/140/89 106/141/89 104/142/89
f 105/140/90 107/143/90 108/144/90 106/141/90
f 107/143/91 109/145/91 110/146/91 108/144/91
f 109/145/92 111/147/92 112/148/92 110/146/92
f 111/147/93 113/149/93 114/150/93 112/148/93
f 113/149/94 115/151/94 116/152/94 114/150/94
f 106/153/95 108/154/95 110/155/95 112/156/95 114/157/95 116/158/95 118/159/95 104/160/95
f 115/151/96 117/161/96 118/162/96 116/152/96
f 117/161/97 103/163/97 104/164/97 118/162/97
f 103/165/98 117/166/98 115/167/98 113/168/98 111/169/98 109/170/98 107/171/98 105/172/98
f 119/173/99 120/174/99 122/175/99 121/176/99
f 121/176/100 122/175/100 124/177/100 123/178/100
f 123/178/101 124/177/101 126/179/101 125/180/101
f 125/180/102 126/179/102 128/181/102 127/182/102
f 127/182/103 128/181/103 130/183/103 129/184/103
f 129/184/104 130/183/104 132/185/104 131/186/104
f 122/187/105 120/188/105 134/189/105 132/190/105 130/191/105 128/192/105 126/193/105 124/194/105
f 131/186/106 132/185/106 134/195/106 133/196/106
f 133/196/107 134/195/107 120/197/107 119/198/107
f 119/199/108 121/200/108 123/201/108 125/202/108 127/203/108 129/204/108 131/205/108 133/206/108
