# Blender v2.91.0 OBJ File: 'chairBasic.blend'
# www.blender.org
mtllib chairBasic.mtl
o Cube.001_Cube.002
v 0.467485 -1.063679 -0.370791
v 0.437750 -0.000905 -0.341056
v 0.467485 -1.063679 -0.528354
v 0.437750 -0.000905 -0.558089
v 0.625048 -1.063679 -0.370791
v 0.654783 -0.000905 -0.341056
v 0.625048 -1.063679 -0.528354
v 0.654783 -0.000905 -0.558089
v -0.467485 -1.063679 -0.370791
v -0.437750 -0.000905 -0.341056
v -0.467485 -1.063679 -0.528354
v -0.437750 -0.000905 -0.558089
v -0.625048 -1.063679 -0.370791
v -0.654783 -0.000905 -0.341056
v -0.625048 -1.063679 -0.528354
v -0.654783 -0.000905 -0.558089
v 0.467485 -1.063679 0.370791
v 0.437750 -0.000905 0.341056
v 0.467485 -1.063679 0.528354
v 0.437750 -0.000905 0.558089
v 0.625048 -1.063679 0.370791
v 0.654783 -0.000905 0.341056
v 0.625048 -1.063679 0.528354
v 0.654783 -0.000905 0.558089
v -0.467485 -1.063679 0.370791
v -0.437750 -0.000905 0.341056
v -0.467485 -1.063679 0.528354
v -0.437750 -0.000905 0.558089
v -0.625048 -1.063679 0.370791
v -0.654783 -0.000905 0.341056
v -0.625048 -1.063679 0.528354
v -0.654783 -0.000905 0.558089
v 0.810634 0.150014 -0.575306
v 0.810634 0.064392 -0.571310
v 0.724594 0.099861 0.610055
v 0.724594 0.002806 0.610055
v -0.810206 0.150014 -0.575306
v -0.810206 0.064392 -0.571310
v -0.724166 0.099861 0.610055
v -0.724166 0.002806 0.610055
v 0.004525 -0.019064 -0.571310
v 0.004525 0.048528 0.667183
v 0.004525 -0.048528 0.667183
v 0.004525 0.048528 -0.617303
v -0.615205 -0.019064 -0.571309
v -0.615205 0.048528 0.667183
v -0.615205 -0.048528 0.667183
v -0.615205 0.048528 -0.617303
v 0.619300 -0.048528 0.667183
v 0.619300 0.048528 -0.617303
v 0.619300 -0.019064 -0.571309
v 0.619300 0.048528 0.667183
v -0.810206 0.052959 -0.496493
v 0.810634 0.150014 -0.496493
v -0.810206 0.150014 -0.496493
v 0.810634 0.052959 -0.496493
v 0.004525 -0.048528 -0.496493
v 0.004525 0.048528 -0.538219
v -0.615205 -0.048528 -0.496493
v -0.615205 0.048528 -0.538219
v 0.619300 0.048528 -0.538219
v 0.619300 -0.048528 -0.496493
v -0.810210 1.600470 -0.496493
v -0.810210 1.600470 -0.575306
v 0.619296 1.779213 -0.617303
v 0.810630 1.600470 -0.575306
v -0.615209 1.779213 -0.617303
v 0.004520 1.779213 -0.617303
v 0.810630 1.600470 -0.496493
v 0.004520 1.779213 -0.538219
v -0.615209 1.779213 -0.538219
v 0.619296 1.779213 -0.538219
v -0.810206 0.052959 0.505722
v 0.810634 0.150014 0.505722
v 0.004525 -0.048528 0.505722
v 0.004525 0.048528 0.505722
v -0.615205 -0.048528 0.505722
v -0.615205 0.048528 0.505722
v 0.619300 0.048528 0.505722
v 0.619300 -0.048528 0.505722
v -0.810206 0.150014 0.505722
v 0.810634 0.052959 0.505722
vt 0.375000 0.000000
vt 0.625000 0.000000
vt 0.625000 0.250000
vt 0.375000 0.250000
vt 0.625000 0.500000
vt 0.375000 0.500000
vt 0.625000 0.750000
vt 0.375000 0.750000
vt 0.625000 1.000000
vt 0.375000 1.000000
vt 0.125000 0.500000
vt 0.125000 0.750000
vt 0.875000 0.500000
vt 0.875000 0.750000
vt 0.375000 0.000000
vt 0.375000 0.250000
vt 0.625000 0.250000
vt 0.625000 0.000000
vt 0.375000 0.500000
vt 0.625000 0.500000
vt 0.375000 0.750000
vt 0.625000 0.750000
vt 0.375000 1.000000
vt 0.625000 1.000000
vt 0.125000 0.500000
vt 0.125000 0.750000
vt 0.875000 0.750000
vt 0.875000 0.500000
vt 0.375000 0.000000
vt 0.375000 0.250000
vt 0.625000 0.250000
vt 0.625000 0.000000
vt 0.375000 0.500000
vt 0.625000 0.500000
vt 0.375000 0.750000
vt 0.625000 0.750000
vt 0.375000 1.000000
vt 0.625000 1.000000
vt 0.125000 0.500000
vt 0.125000 0.750000
vt 0.875000 0.750000
vt 0.875000 0.500000
vt 0.375000 0.000000
vt 0.625000 0.000000
vt 0.625000 0.250000
vt 0.375000 0.250000
vt 0.625000 0.500000
vt 0.375000 0.500000
vt 0.625000 0.750000
vt 0.375000 0.750000
vt 0.625000 1.000000
vt 0.375000 1.000000
vt 0.125000 0.500000
vt 0.125000 0.750000
vt 0.875000 0.500000
vt 0.875000 0.750000
vt 0.812217 0.720501
vt 0.875000 0.720501
vt 0.875000 0.750000
vt 0.812217 0.750000
vt 0.375000 0.937217
vt 0.625000 0.937217
vt 0.625000 1.000000
vt 0.375000 1.000000
vt 0.375000 0.212607
vt 0.625000 0.212607
vt 0.625000 0.250000
vt 0.375000 0.250000
vt 0.312783 0.720501
vt 0.375000 0.720501
vt 0.375000 0.750000
vt 0.312783 0.750000
vt 0.625000 0.720501
vt 0.625000 0.750000
vt 0.375000 0.437783
vt 0.625000 0.437783
vt 0.625000 0.500000
vt 0.375000 0.500000
vt 0.375000 0.312783
vt 0.625000 0.312783
vt 0.625000 0.375566
vt 0.375000 0.375566
vt 0.187783 0.720501
vt 0.250566 0.720501
vt 0.250566 0.750000
vt 0.187783 0.750000
vt 0.375000 0.812217
vt 0.625000 0.812217
vt 0.625000 0.874434
vt 0.375000 0.874434
vt 0.687217 0.720501
vt 0.749434 0.720501
vt 0.749434 0.750000
vt 0.687217 0.750000
vt 0.125000 0.720501
vt 0.125000 0.750000
vt 0.250566 0.500000
vt 0.312783 0.500000
vt 0.312783 0.537393
vt 0.250566 0.537393
vt 0.875000 0.537393
vt 0.812217 0.537393
vt 0.812217 0.537393
vt 0.875000 0.537393
vt 0.749434 0.537393
vt 0.749434 0.537393
vt 0.125000 0.500000
vt 0.187783 0.500000
vt 0.187783 0.537393
vt 0.125000 0.537393
vt 0.625000 0.437783
vt 0.625000 0.500000
vt 0.625000 0.537393
vt 0.375000 0.537393
vt 0.375000 0.029499
vt 0.625000 0.029499
vt 0.625000 0.537393
vt 0.687217 0.500000
vt 0.687217 0.537393
vt 0.749434 0.500000
vt 0.812217 0.500000
vt 0.875000 0.500000
vt 0.625000 0.312783
vt 0.625000 0.375566
vt 0.625000 0.212607
vt 0.625000 0.250000
vt 0.687217 0.537393
vt 0.375000 0.000000
vt 0.625000 0.000000
vn -0.9996 -0.0280 0.0000
vn 0.0000 -0.0280 -0.9996
vn 0.9996 -0.0280 0.0000
vn 0.0000 -0.0280 0.9996
vn 0.0000 -1.0000 0.0000
vn 0.0000 1.0000 0.0000
vn 0.4453 0.8950 0.0247
vn -0.4643 0.0000 0.8857
vn -1.0000 0.0000 0.0000
vn 0.4547 -0.8904 -0.0208
vn 0.7715 0.0000 0.6362
vn 0.2464 -0.3006 -0.9214
vn -0.0000 -0.5626 -0.8267
vn 0.0000 0.0000 1.0000
vn -0.4453 -0.8950 -0.0247
vn -0.2420 -0.3010 -0.9224
vn -0.4547 0.8904 0.0208
vn 0.4769 0.0000 0.8790
vn 0.0000 -0.9305 -0.3664
vn 0.2092 0.0000 0.9779
vn -0.4160 -0.8772 -0.2397
vn 0.2144 0.0000 -0.9767
vn 1.0000 0.0000 0.0000
vn 0.4225 -0.8743 -0.2389
vn 0.6827 0.7307 0.0000
vn -0.6757 0.7372 0.0000
vn -0.0000 -0.0000 -1.0000
vn -0.2105 -0.0000 -0.9776
vn -0.2131 -0.0000 0.9770
vn -0.7715 0.0000 0.6362
vn -0.4686 0.8834 -0.0000
vn -0.4617 -0.8871 0.0000
vn 0.4686 -0.8834 -0.0000
vn 0.4617 0.8871 0.0000
usemtl Material.001
s off
f 1/1/1 2/2/1 4/3/1 3/4/1
f 3/4/2 4/3/2 8/5/2 7/6/2
f 7/6/3 8/5/3 6/7/3 5/8/3
f 5/8/4 6/7/4 2/9/4 1/10/4
f 3/11/5 7/6/5 5/8/5 1/12/5
f 8/5/6 4/13/6 2/14/6 6/7/6
f 9/15/3 11/16/3 12/17/3 10/18/3
f 11/16/2 15/19/2 16/20/2 12/17/2
f 15/19/1 13/21/1 14/22/1 16/20/1
f 13/21/4 9/23/4 10/24/4 14/22/4
f 11/25/5 9/26/5 13/21/5 15/19/5
f 16/20/6 14/22/6 10/27/6 12/28/6
f 17/29/1 19/30/1 20/31/1 18/32/1
f 19/30/4 23/33/4 24/34/4 20/31/4
f 23/33/3 21/35/3 22/36/3 24/34/3
f 21/35/2 17/37/2 18/38/2 22/36/2
f 19/39/5 17/40/5 21/35/5 23/33/5
f 24/34/6 22/36/6 18/41/6 20/42/6
f 25/43/3 26/44/3 28/45/3 27/46/3
f 27/46/4 28/45/4 32/47/4 31/48/4
f 31/48/1 32/47/1 30/49/1 29/50/1
f 29/50/2 30/49/2 26/51/2 25/52/2
f 27/53/5 31/48/5 29/50/5 25/54/5
f 32/47/6 28/55/6 26/56/6 30/49/6
usemtl Material
f 78/57/7 81/58/7 39/59/7 46/60/7
f 47/61/8 46/62/8 39/63/8 40/64/8
f 53/65/9 55/66/9 37/67/9 38/68/9
f 80/69/10 82/70/10 36/71/10 49/72/10
f 82/70/11 74/73/11 35/74/11 36/71/11
f 51/75/12 50/76/12 33/77/12 34/78/12
f 45/79/13 48/80/13 44/81/13 41/82/13
f 77/83/5 75/84/5 43/85/5 47/86/5
f 49/87/14 52/88/14 42/89/14 43/90/14
f 79/91/6 76/92/6 42/93/6 52/94/6
f 73/95/15 77/83/15 47/86/15 40/96/15
f 38/68/16 37/67/16 48/80/16 45/79/16
f 43/90/14 42/89/14 46/62/14 47/61/14
f 76/92/6 78/57/6 46/60/6 42/93/6
f 74/73/17 79/91/17 52/94/17 35/74/17
f 36/71/18 35/74/18 52/88/18 49/87/18
f 41/82/13 44/81/13 50/76/13 51/75/13
f 75/84/5 80/69/5 49/72/5 43/85/5
f 41/97/19 51/98/19 62/99/19 57/100/19
f 55/101/20 60/102/20 71/103/20 63/104/20
f 60/102/14 58/105/14 70/106/14 71/103/14
f 38/107/21 45/108/21 59/109/21 53/110/21
f 33/77/22 50/76/22 65/111/22 66/112/22
f 45/108/19 41/97/19 57/100/19 59/109/19
f 34/78/23 33/77/23 54/113/23 56/114/23
f 51/98/24 34/78/24 56/114/24 62/99/24
f 73/115/9 81/116/9 55/66/9 53/65/9
f 54/113/23 33/77/23 66/112/23 69/117/23
f 66/112/25 65/118/25 72/119/25 69/117/25
f 68/120/6 67/121/6 71/103/6 70/106/6
f 65/118/6 68/120/6 70/106/6 72/119/6
f 67/121/26 64/122/26 63/104/26 71/103/26
f 44/81/27 48/80/27 67/123/27 68/124/27
f 50/76/27 44/81/27 68/124/27 65/111/27
f 37/67/9 55/66/9 63/125/9 64/126/9
f 58/105/14 61/127/14 72/119/14 70/106/14
f 48/80/28 37/67/28 64/126/28 67/123/28
f 61/127/29 54/113/29 69/117/29 72/119/29
f 40/128/30 39/129/30 81/116/30 73/115/30
f 57/100/5 62/99/5 80/69/5 75/84/5
f 54/113/31 61/127/31 79/91/31 74/73/31
f 58/105/6 60/102/6 78/57/6 76/92/6
f 53/110/32 59/109/32 77/83/32 73/95/32
f 61/127/6 58/105/6 76/92/6 79/91/6
f 59/109/5 57/100/5 75/84/5 77/83/5
f 56/114/23 54/113/23 74/73/23 82/70/23
f 62/99/33 56/114/33 82/70/33 80/69/33
f 60/102/34 55/101/34 81/58/34 78/57/34
