<svg id="レイヤー_1" data-name="レイヤー 1" xmlns="http://www.w3.org/2000/svg" viewBox="0 0 24 24"><defs><style>.cls-1{fill:none;}</style></defs><path class="cls-1" d="M0,0H24V24H0Z"/><path d="M8.94,13.27a1.81,1.81,0,0,0,1.55-.88L8.09,10a1.78,1.78,0,0,0-.49,2.49A1.76,1.76,0,0,0,8.94,13.27Z"/><path d="M14.91,13.28a1.8,1.8,0,0,0,1.8-1.81,1.82,1.82,0,0,0-.88-1.54l-2.46,2.4A1.78,1.78,0,0,0,14.91,13.28Z"/><path d="M12,2A10,10,0,1,0,22,12,10,10,0,0,0,12,2Zm0,18a8,8,0,1,1,8-8A8,8,0,0,1,12,20Z"/><rect x="8.29" y="15.29" width="7.42" height="1.21"/></svg>