{
    "asset" : {
        "generator" : "Khronos glTF Blender I/O v1.4.40",
        "version" : "2.0"
    },
    "scene" : 0,
    "scenes" : [
        {
            "name" : "Scene",
            "nodes" : [
                0,
                1,
                2
            ]
        }
    ],
    "nodes" : [
        {
            "mesh" : 0,
            "name" : "Body",
            "rotation" : [
                0,
                -1,
                0,
                7.549790126404332e-08
            ]
        },
        {
            "mesh" : 1,
            "name" : "Cone",
            "translation" : [
                0,
                -1.2463147640228271,
                0.017161695286631584
            ]
        },
        {
            "mesh" : 2,
            "name" : "Head"
        }
    ],
    "animations" : [
        {
            "channels" : [
                {
                    "sampler" : 0,
                    "target" : {
                        "node" : 1,
                        "path" : "rotation"
                    }
                },
                {
                    "sampler" : 1,
                    "target" : {
                        "node" : 1,
                        "path" : "translation"
                    }
                }
            ],
            "name" : "ConeAction.001",
            "samplers" : [
                {
                    "input" : 20,
                    "interpolation" : "LINEAR",
                    "output" : 21
                },
                {
                    "input" : 20,
                    "interpolation" : "LINEAR",
                    "output" : 22
                }
            ]
        }
    ],
    "materials" : [
        {
            "doubleSided" : true,
            "name" : "Metal",
            "pbrMetallicRoughness" : {
                "baseColorFactor" : [
                    0.29177066683769226,
                    0.3185468018054962,
                    0.33716365694999695,
                    1
                ],
                "metallicFactor" : 0.7383419871330261,
                "roughnessFactor" : 0.10000000149011612
            }
        },
        {
            "alphaMode" : "BLEND",
            "doubleSided" : true,
            "emissiveFactor" : [
                0.015043271705508232,
                0.0704355463385582,
                0.0949416309595108
            ],
            "name" : "Cone",
            "pbrMetallicRoughness" : {
                "baseColorFactor" : [
                    0.0024282161612063646,
                    0.5845469832420349,
                    1,
                    1
                ],
                "metallicFactor" : 0
            }
        },
        {
            "doubleSided" : true,
            "emissiveFactor" : [
                0.4043576717376709,
                0.4043576717376709,
                0.4043576717376709
            ],
            "name" : "EyeWhites",
            "pbrMetallicRoughness" : {
                "metallicFactor" : 0,
                "roughnessFactor" : 0.5
            }
        },
        {
            "doubleSided" : true,
            "name" : "Eyes",
            "pbrMetallicRoughness" : {
                "baseColorFactor" : [
                    0,
                    0,
                    0,
                    1
                ],
                "metallicFactor" : 0,
                "roughnessFactor" : 0.5
            }
        },
        {
            "doubleSided" : true,
            "name" : "Head",
            "pbrMetallicRoughness" : {
                "baseColorFactor" : [
                    0.3976750075817108,
                    0.8000000715255737,
                    0.7546032667160034,
                    1
                ],
                "metallicFactor" : 0,
                "roughnessFactor" : 0.5
            }
        }
    ],
    "meshes" : [
        {
            "name" : "Cube.007",
            "primitives" : [
                {
                    "attributes" : {
                        "POSITION" : 0,
                        "NORMAL" : 1,
                        "TEXCOORD_0" : 2
                    },
                    "indices" : 3,
                    "material" : 0
                }
            ]
        },
        {
            "name" : "Cone.001",
            "primitives" : [
                {
                    "attributes" : {
                        "POSITION" : 4,
                        "NORMAL" : 5,
                        "TEXCOORD_0" : 6
                    },
                    "indices" : 7,
                    "material" : 1
                }
            ]
        },
        {
            "name" : "Cube.001",
            "primitives" : [
                {
                    "attributes" : {
                        "POSITION" : 8,
                        "NORMAL" : 9,
                        "TEXCOORD_0" : 10
                    },
                    "indices" : 11,
                    "material" : 2
                },
                {
                    "attributes" : {
                        "POSITION" : 12,
                        "NORMAL" : 13,
                        "TEXCOORD_0" : 14
                    },
                    "indices" : 15,
                    "material" : 3
                },
                {
                    "attributes" : {
                        "POSITION" : 16,
                        "NORMAL" : 17,
                        "TEXCOORD_0" : 18
                    },
                    "indices" : 19,
                    "material" : 4
                }
            ]
        }
    ],
    "accessors" : [
        {
            "bufferView" : 0,
            "componentType" : 5126,
            "count" : 589,
            "max" : [
                0.33386901021003723,
                -0.20007626712322235,
                0.14777716994285583
            ],
            "min" : [
                -0.34440964460372925,
                -0.9184490442276001,
                -0.17376646399497986
            ],
            "type" : "VEC3"
        },
        {
            "bufferView" : 1,
            "componentType" : 5126,
            "count" : 589,
            "type" : "VEC3"
        },
        {
            "bufferView" : 2,
            "componentType" : 5126,
            "count" : 589,
            "type" : "VEC2"
        },
        {
            "bufferView" : 3,
            "componentType" : 5123,
            "count" : 708,
            "type" : "SCALAR"
        },
        {
            "bufferView" : 4,
            "componentType" : 5126,
            "count" : 80,
            "max" : [
                0.1497882604598999,
                0.14255391061306,
                0.14693418145179749
            ],
            "min" : [
                -0.1502099633216858,
                -0.2914183735847473,
                -0.15292145311832428
            ],
            "type" : "VEC3"
        },
        {
            "bufferView" : 5,
            "componentType" : 5126,
            "count" : 80,
            "type" : "VEC3"
        },
        {
            "bufferView" : 6,
            "componentType" : 5126,
            "count" : 80,
            "type" : "VEC2"
        },
        {
            "bufferView" : 7,
            "componentType" : 5123,
            "count" : 192,
            "type" : "SCALAR"
        },
        {
            "bufferView" : 8,
            "componentType" : 5126,
            "count" : 176,
            "max" : [
                0.106132872402668,
                0.136896014213562,
                -0.1934124231338501
            ],
            "min" : [
                -0.11675301194190979,
                0.05186007171869278,
                -0.19341249763965607
            ],
            "type" : "VEC3"
        },
        {
            "bufferView" : 9,
            "componentType" : 5126,
            "count" : 176,
            "type" : "VEC3"
        },
        {
            "bufferView" : 10,
            "componentType" : 5126,
            "count" : 176,
            "type" : "VEC2"
        },
        {
            "bufferView" : 11,
            "componentType" : 5123,
            "count" : 180,
            "type" : "SCALAR"
        },
        {
            "bufferView" : 12,
            "componentType" : 5126,
            "count" : 149,
            "max" : [
                0.07656271010637283,
                0.11563702672719955,
                -0.19559894502162933
            ],
            "min" : [
                -0.09549403935670853,
                0.07311905920505524,
                -0.19559898972511292
            ],
            "type" : "VEC3"
        },
        {
            "bufferView" : 13,
            "componentType" : 5126,
            "count" : 149,
            "type" : "VEC3"
        },
        {
            "bufferView" : 14,
            "componentType" : 5126,
            "count" : 149,
            "type" : "VEC2"
        },
        {
            "bufferView" : 15,
            "componentType" : 5123,
            "count" : 180,
            "type" : "SCALAR"
        },
        {
            "bufferView" : 16,
            "componentType" : 5126,
            "count" : 132,
            "max" : [
                0.17552971839904785,
                0.17720933258533478,
                0.11766178905963898
            ],
            "min" : [
                -0.16578732430934906,
                -0.16822032630443573,
                -0.19226402044296265
            ],
            "type" : "VEC3"
        },
        {
            "bufferView" : 17,
            "componentType" : 5126,
            "count" : 132,
            "type" : "VEC3"
        },
        {
            "bufferView" : 18,
            "componentType" : 5126,
            "count" : 132,
            "type" : "VEC2"
        },
        {
            "bufferView" : 19,
            "componentType" : 5123,
            "count" : 264,
            "type" : "SCALAR"
        },
        {
            "bufferView" : 20,
            "componentType" : 5126,
            "count" : 101,
            "max" : [
                4.166666666666667
            ],
            "min" : [
                0
            ],
            "type" : "SCALAR"
        },
        {
            "bufferView" : 21,
            "componentType" : 5126,
            "count" : 101,
            "type" : "VEC4"
        },
        {
            "bufferView" : 22,
            "componentType" : 5126,
            "count" : 101,
            "type" : "VEC3"
        }
    ],
    "bufferViews" : [
        {
            "buffer" : 0,
            "byteLength" : 7068,
            "byteOffset" : 0
        },
        {
            "buffer" : 0,
            "byteLength" : 7068,
            "byteOffset" : 7068
        },
        {
            "buffer" : 0,
            "byteLength" : 4712,
            "byteOffset" : 14136
        },
        {
            "buffer" : 0,
            "byteLength" : 1416,
            "byteOffset" : 18848
        },
        {
            "buffer" : 0,
            "byteLength" : 960,
            "byteOffset" : 20264
        },
        {
            "buffer" : 0,
            "byteLength" : 960,
            "byteOffset" : 21224
        },
        {
            "buffer" : 0,
            "byteLength" : 640,
            "byteOffset" : 22184
        },
        {
            "buffer" : 0,
            "byteLength" : 384,
            "byteOffset" : 22824
        },
        {
            "buffer" : 0,
            "byteLength" : 2112,
            "byteOffset" : 23208
        },
        {
            "buffer" : 0,
            "byteLength" : 2112,
            "byteOffset" : 25320
        },
        {
            "buffer" : 0,
            "byteLength" : 1408,
            "byteOffset" : 27432
        },
        {
            "buffer" : 0,
            "byteLength" : 360,
            "byteOffset" : 28840
        },
        {
            "buffer" : 0,
            "byteLength" : 1788,
            "byteOffset" : 29200
        },
        {
            "buffer" : 0,
            "byteLength" : 1788,
            "byteOffset" : 30988
        },
        {
            "buffer" : 0,
            "byteLength" : 1192,
            "byteOffset" : 32776
        },
        {
            "buffer" : 0,
            "byteLength" : 360,
            "byteOffset" : 33968
        },
        {
            "buffer" : 0,
            "byteLength" : 1584,
            "byteOffset" : 34328
        },
        {
            "buffer" : 0,
            "byteLength" : 1584,
            "byteOffset" : 35912
        },
        {
            "buffer" : 0,
            "byteLength" : 1056,
            "byteOffset" : 37496
        },
        {
            "buffer" : 0,
            "byteLength" : 528,
            "byteOffset" : 38552
        },
        {
            "buffer" : 0,
            "byteLength" : 404,
            "byteOffset" : 39080
        },
        {
            "buffer" : 0,
            "byteLength" : 1616,
            "byteOffset" : 39484
        },
        {
            "buffer" : 0,
            "byteLength" : 1212,
            "byteOffset" : 41100
        }
    ],
    "buffers" : [
        {
            "byteLength" : 42312,
            "uri" : "data:application/octet-stream;base64,"
        }
    ]
}
