{
    "asset" : {
        "generator" : "Khronos glTF Blender I/O v1.4.40",
        "version" : "2.0"
    },
    "scene" : 0,
    "scenes" : [
        {
            "name" : "Scene",
            "nodes" : [
                0,
                1,
                2
            ]
        }
    ],
    "nodes" : [
        {
            "mesh" : 0,
            "name" : "Body",
            "rotation" : [
                0,
                1,
                0,
                -4.371138828673793e-08
            ],
            "scale" : [
                0.10713648796081543,
                0.10815393179655075,
                0.09638909250497818
            ],
            "translation" : [
                0,
                0.1770549863576889,
                -0.0005570948123931885
            ]
        },
        {
            "mesh" : 1,
            "name" : "Cone",
            "rotation" : [
                -0.17517134547233582,
                0.004846563097089529,
                -0.9845259189605713,
                0.0005492159398272634
            ],
            "scale" : [
                0.16227945685386658,
                0.21865256130695343,
                0.13531720638275146
            ],
            "translation" : [
                0,
                -1.548851490020752,
                0.0011042356491088867
            ]
        },
        {
            "mesh" : 2,
            "name" : "Head",
            "scale" : [
                0.10713648796081543,
                0.10815393179655075,
                0.09638909250497818
            ]
        }
    ],
    "animations" : [
        {
            "channels" : [
                {
                    "sampler" : 0,
                    "target" : {
                        "node" : 1,
                        "path" : "rotation"
                    }
                }
            ],
            "name" : "ConeAction.001",
            "samplers" : [
                {
                    "input" : 43,
                    "interpolation" : "LINEAR",
                    "output" : 44
                }
            ]
        }
    ],
    "materials" : [
        {
            "doubleSided" : true,
            "name" : "Material.013",
            "pbrMetallicRoughness" : {
                "baseColorFactor" : [
                    0.28314879536628723,
                    0.30946895480155945,
                    0.3277781009674072,
                    1
                ],
                "metallicFactor" : 0,
                "roughnessFactor" : 0.3120567500591278
            }
        },
        {
            "doubleSided" : true,
            "name" : "Material.011",
            "pbrMetallicRoughness" : {
                "baseColorFactor" : [
                    0.29613831639289856,
                    0.33716365694999695,
                    0.34670406579971313,
                    1
                ],
                "metallicFactor" : 0,
                "roughnessFactor" : 0.5
            }
        },
        {
            "doubleSided" : true,
            "name" : "Material.012",
            "pbrMetallicRoughness" : {
                "baseColorFactor" : [
                    0.3126567006111145,
                    0.37574952840805054,
                    0.37574952840805054,
                    1
                ],
                "metallicFactor" : 0,
                "roughnessFactor" : 0.5
            }
        },
        {
            "doubleSided" : true,
            "name" : "Material.014",
            "pbrMetallicRoughness" : {
                "baseColorFactor" : [
                    0.29177066683769226,
                    0.3185468018054962,
                    0.33716365694999695,
                    1
                ],
                "metallicFactor" : 0,
                "roughnessFactor" : 0.5
            }
        },
        {
            "doubleSided" : true,
            "name" : "Material.017",
            "pbrMetallicRoughness" : {
                "baseColorFactor" : [
                    0.29177066683769226,
                    0.3185468018054962,
                    0.33716365694999695,
                    1
                ],
                "metallicFactor" : 0,
                "roughnessFactor" : 0.5
            }
        },
        {
            "doubleSided" : true,
            "name" : "Material.016",
            "pbrMetallicRoughness" : {
                "baseColorFactor" : [
                    0.0024282161612063646,
                    1,
                    1,
                    1
                ],
                "metallicFactor" : 0,
                "roughnessFactor" : 0.5
            }
        },
        {
            "doubleSided" : true,
            "name" : "Material.005",
            "pbrMetallicRoughness" : {
                "baseColorFactor" : [
                    0.800000011920929,
                    0.800000011920929,
                    0.800000011920929,
                    1
                ],
                "metallicFactor" : 0
            }
        },
        {
            "doubleSided" : true,
            "name" : "Material.008",
            "pbrMetallicRoughness" : {
                "baseColorFactor" : [
                    0.800000011920929,
                    0.800000011920929,
                    0.800000011920929,
                    1
                ],
                "metallicFactor" : 0
            }
        },
        {
            "doubleSided" : true,
            "name" : "Material.009",
            "pbrMetallicRoughness" : {
                "baseColorFactor" : [
                    0,
                    0,
                    0,
                    1
                ],
                "metallicFactor" : 0
            }
        },
        {
            "doubleSided" : true,
            "name" : "Material.010",
            "pbrMetallicRoughness" : {
                "baseColorFactor" : [
                    0,
                    0,
                    0,
                    1
                ],
                "metallicFactor" : 0
            }
        },
        {
            "doubleSided" : true,
            "name" : "Material.015",
            "pbrMetallicRoughness" : {
                "baseColorFactor" : [
                    0.3976750075817108,
                    0.8000000715255737,
                    0.7546032667160034,
                    1
                ],
                "metallicFactor" : 0,
                "roughnessFactor" : 0.5
            }
        }
    ],
    "meshes" : [
        {
            "name" : "Cube.007",
            "primitives" : [
                {
                    "attributes" : {
                        "POSITION" : 0,
                        "NORMAL" : 1,
                        "TEXCOORD_0" : 2
                    },
                    "indices" : 3,
                    "material" : 0
                },
                {
                    "attributes" : {
                        "POSITION" : 4,
                        "NORMAL" : 5,
                        "TEXCOORD_0" : 6
                    },
                    "indices" : 7,
                    "material" : 1
                },
                {
                    "attributes" : {
                        "POSITION" : 8,
                        "NORMAL" : 9,
                        "TEXCOORD_0" : 10
                    },
                    "indices" : 11,
                    "material" : 2
                },
                {
                    "attributes" : {
                        "POSITION" : 12,
                        "NORMAL" : 13,
                        "TEXCOORD_0" : 14
                    },
                    "indices" : 15,
                    "material" : 3
                },
                {
                    "attributes" : {
                        "POSITION" : 16,
                        "NORMAL" : 17,
                        "TEXCOORD_0" : 18
                    },
                    "indices" : 3,
                    "material" : 4
                }
            ]
        },
        {
            "name" : "Cone.001",
            "primitives" : [
                {
                    "attributes" : {
                        "POSITION" : 19,
                        "NORMAL" : 20,
                        "TEXCOORD_0" : 21
                    },
                    "indices" : 22,
                    "material" : 5
                }
            ]
        },
        {
            "name" : "Cube.001",
            "primitives" : [
                {
                    "attributes" : {
                        "POSITION" : 23,
                        "NORMAL" : 24,
                        "TEXCOORD_0" : 25
                    },
                    "indices" : 26,
                    "material" : 6
                },
                {
                    "attributes" : {
                        "POSITION" : 27,
                        "NORMAL" : 28,
                        "TEXCOORD_0" : 29
                    },
                    "indices" : 30,
                    "material" : 7
                },
                {
                    "attributes" : {
                        "POSITION" : 31,
                        "NORMAL" : 32,
                        "TEXCOORD_0" : 33
                    },
                    "indices" : 34,
                    "material" : 8
                },
                {
                    "attributes" : {
                        "POSITION" : 35,
                        "NORMAL" : 36,
                        "TEXCOORD_0" : 37
                    },
                    "indices" : 38,
                    "material" : 9
                },
                {
                    "attributes" : {
                        "POSITION" : 39,
                        "NORMAL" : 40,
                        "TEXCOORD_0" : 41
                    },
                    "indices" : 42,
                    "material" : 10
                }
            ]
        }
    ],
    "accessors" : [
        {
            "bufferView" : 0,
            "componentType" : 5126,
            "count" : 24,
            "max" : [
                0.9675652980804443,
                -3.4869861602783203,
                0.8533903956413269
            ],
            "min" : [
                -1.0324347019195557,
                -5.48698616027832,
                -1.1466095447540283
            ],
            "type" : "VEC3"
        },
        {
            "bufferView" : 1,
            "componentType" : 5126,
            "count" : 24,
            "type" : "VEC3"
        },
        {
            "bufferView" : 2,
            "componentType" : 5126,
            "count" : 24,
            "type" : "VEC2"
        },
        {
            "bufferView" : 3,
            "componentType" : 5123,
            "count" : 36,
            "type" : "SCALAR"
        },
        {
            "bufferView" : 4,
            "componentType" : 5126,
            "count" : 498,
            "max" : [
                2.021566867828369,
                -3.9272642135620117,
                1.5273520946502686
            ],
            "min" : [
                -2.131074905395508,
                -12.336350440979004,
                -1.8085403442382812
            ],
            "type" : "VEC3"
        },
        {
            "bufferView" : 5,
            "componentType" : 5126,
            "count" : 498,
            "type" : "VEC3"
        },
        {
            "bufferView" : 6,
            "componentType" : 5126,
            "count" : 498,
            "type" : "VEC2"
        },
        {
            "bufferView" : 7,
            "componentType" : 5123,
            "count" : 564,
            "type" : "SCALAR"
        },
        {
            "bufferView" : 8,
            "componentType" : 5126,
            "count" : 26,
            "max" : [
                1.6579945087432861,
                -12.253615379333496,
                1.498880386352539
            ],
            "min" : [
                -1.7675023078918457,
                -13.37806224822998,
                -1.7800688743591309
            ],
            "type" : "VEC3"
        },
        {
            "bufferView" : 9,
            "componentType" : 5126,
            "count" : 26,
            "type" : "VEC3"
        },
        {
            "bufferView" : 10,
            "componentType" : 5126,
            "count" : 26,
            "type" : "VEC2"
        },
        {
            "bufferView" : 11,
            "componentType" : 5123,
            "count" : 36,
            "type" : "SCALAR"
        },
        {
            "bufferView" : 12,
            "componentType" : 5126,
            "count" : 28,
            "max" : [
                3.1162869930267334,
                -4.474471569061279,
                0.9847502112388611
            ],
            "min" : [
                2.2303836345672607,
                -5.904198169708252,
                -1.2005336284637451
            ],
            "type" : "VEC3"
        },
        {
            "bufferView" : 13,
            "componentType" : 5126,
            "count" : 28,
            "type" : "VEC3"
        },
        {
            "bufferView" : 14,
            "componentType" : 5126,
            "count" : 28,
            "type" : "VEC2"
        },
        {
            "bufferView" : 15,
            "componentType" : 5123,
            "count" : 36,
            "type" : "SCALAR"
        },
        {
            "bufferView" : 16,
            "componentType" : 5126,
            "count" : 24,
            "max" : [
                -2.3287861347198486,
                -4.474471569061279,
                0.9847502112388611
            ],
            "min" : [
                -3.2146899700164795,
                -5.904198169708252,
                -1.2005336284637451
            ],
            "type" : "VEC3"
        },
        {
            "bufferView" : 17,
            "componentType" : 5126,
            "count" : 24,
            "type" : "VEC3"
        },
        {
            "bufferView" : 18,
            "componentType" : 5126,
            "count" : 24,
            "type" : "VEC2"
        },
        {
            "bufferView" : 19,
            "componentType" : 5126,
            "count" : 127,
            "max" : [
                1,
                1,
                1
            ],
            "min" : [
                -1,
                -1,
                -1
            ],
            "type" : "VEC3"
        },
        {
            "bufferView" : 20,
            "componentType" : 5126,
            "count" : 127,
            "type" : "VEC3"
        },
        {
            "bufferView" : 21,
            "componentType" : 5126,
            "count" : 127,
            "type" : "VEC2"
        },
        {
            "bufferView" : 22,
            "componentType" : 5123,
            "count" : 177,
            "type" : "SCALAR"
        },
        {
            "bufferView" : 23,
            "componentType" : 5126,
            "count" : 85,
            "max" : [
                0.9906323552131653,
                1.2657517194747925,
                -1.3147575855255127
            ],
            "min" : [
                0.19691650569438934,
                0.4795025587081909,
                -1.3147579431533813
            ],
            "type" : "VEC3"
        },
        {
            "bufferView" : 24,
            "componentType" : 5126,
            "count" : 85,
            "type" : "VEC3"
        },
        {
            "bufferView" : 25,
            "componentType" : 5126,
            "count" : 85,
            "type" : "VEC2"
        },
        {
            "bufferView" : 26,
            "componentType" : 5123,
            "count" : 90,
            "type" : "SCALAR"
        },
        {
            "bufferView" : 27,
            "componentType" : 5126,
            "count" : 89,
            "max" : [
                -0.29604372382164,
                1.2657517194747925,
                -1.314757227897644
            ],
            "min" : [
                -1.0897595882415771,
                0.4795025587081909,
                -1.3147575855255127
            ],
            "type" : "VEC3"
        },
        {
            "bufferView" : 28,
            "componentType" : 5126,
            "count" : 89,
            "type" : "VEC3"
        },
        {
            "bufferView" : 29,
            "componentType" : 5126,
            "count" : 89,
            "type" : "VEC2"
        },
        {
            "bufferView" : 30,
            "componentType" : 5123,
            "count" : 90,
            "type" : "SCALAR"
        },
        {
            "bufferView" : 31,
            "componentType" : 5126,
            "count" : 80,
            "max" : [
                -0.4944727420806885,
                1.069189429283142,
                -1.3374414443969727
            ],
            "min" : [
                -0.8913307189941406,
                0.6760648488998413,
                -1.3374415636062622
            ],
            "type" : "VEC3"
        },
        {
            "bufferView" : 32,
            "componentType" : 5126,
            "count" : 80,
            "type" : "VEC3"
        },
        {
            "bufferView" : 33,
            "componentType" : 5126,
            "count" : 80,
            "type" : "VEC2"
        },
        {
            "bufferView" : 34,
            "componentType" : 5123,
            "count" : 90,
            "type" : "SCALAR"
        },
        {
            "bufferView" : 35,
            "componentType" : 5126,
            "count" : 80,
            "max" : [
                0.714627742767334,
                1.069189429283142,
                -1.3374418020248413
            ],
            "min" : [
                0.3177698254585266,
                0.6760648488998413,
                -1.3374419212341309
            ],
            "type" : "VEC3"
        },
        {
            "bufferView" : 36,
            "componentType" : 5126,
            "count" : 80,
            "type" : "VEC3"
        },
        {
            "bufferView" : 37,
            "componentType" : 5126,
            "count" : 80,
            "type" : "VEC2"
        },
        {
            "bufferView" : 38,
            "componentType" : 5123,
            "count" : 90,
            "type" : "SCALAR"
        },
        {
            "bufferView" : 39,
            "componentType" : 5126,
            "count" : 170,
            "max" : [
                1.6383748054504395,
                1.6384919881820679,
                1.912518858909607
            ],
            "min" : [
                -1.5474402904510498,
                -1.5553785562515259,
                -1.3028429746627808
            ],
            "type" : "VEC3"
        },
        {
            "bufferView" : 40,
            "componentType" : 5126,
            "count" : 170,
            "type" : "VEC3"
        },
        {
            "bufferView" : 41,
            "componentType" : 5126,
            "count" : 170,
            "type" : "VEC2"
        },
        {
            "bufferView" : 42,
            "componentType" : 5123,
            "count" : 264,
            "type" : "SCALAR"
        },
        {
            "bufferView" : 43,
            "componentType" : 5126,
            "count" : 100,
            "max" : [
                4.166666666666667
            ],
            "min" : [
                0.041666666666666664
            ],
            "type" : "SCALAR"
        },
        {
            "bufferView" : 44,
            "componentType" : 5126,
            "count" : 100,
            "type" : "VEC4"
        }
    ],
    "bufferViews" : [
        {
            "buffer" : 0,
            "byteLength" : 288,
            "byteOffset" : 0
        },
        {
            "buffer" : 0,
            "byteLength" : 288,
            "byteOffset" : 288
        },
        {
            "buffer" : 0,
            "byteLength" : 192,
            "byteOffset" : 576
        },
        {
            "buffer" : 0,
            "byteLength" : 72,
            "byteOffset" : 768
        },
        {
            "buffer" : 0,
            "byteLength" : 5976,
            "byteOffset" : 840
        },
        {
            "buffer" : 0,
            "byteLength" : 5976,
            "byteOffset" : 6816
        },
        {
            "buffer" : 0,
            "byteLength" : 3984,
            "byteOffset" : 12792
        },
        {
            "buffer" : 0,
            "byteLength" : 1128,
            "byteOffset" : 16776
        },
        {
            "buffer" : 0,
            "byteLength" : 312,
            "byteOffset" : 17904
        },
        {
            "buffer" : 0,
            "byteLength" : 312,
            "byteOffset" : 18216
        },
        {
            "buffer" : 0,
            "byteLength" : 208,
            "byteOffset" : 18528
        },
        {
            "buffer" : 0,
            "byteLength" : 72,
            "byteOffset" : 18736
        },
        {
            "buffer" : 0,
            "byteLength" : 336,
            "byteOffset" : 18808
        },
        {
            "buffer" : 0,
            "byteLength" : 336,
            "byteOffset" : 19144
        },
        {
            "buffer" : 0,
            "byteLength" : 224,
            "byteOffset" : 19480
        },
        {
            "buffer" : 0,
            "byteLength" : 72,
            "byteOffset" : 19704
        },
        {
            "buffer" : 0,
            "byteLength" : 288,
            "byteOffset" : 19776
        },
        {
            "buffer" : 0,
            "byteLength" : 288,
            "byteOffset" : 20064
        },
        {
            "buffer" : 0,
            "byteLength" : 192,
            "byteOffset" : 20352
        },
        {
            "buffer" : 0,
            "byteLength" : 1524,
            "byteOffset" : 20544
        },
        {
            "buffer" : 0,
            "byteLength" : 1524,
            "byteOffset" : 22068
        },
        {
            "buffer" : 0,
            "byteLength" : 1016,
            "byteOffset" : 23592
        },
        {
            "buffer" : 0,
            "byteLength" : 354,
            "byteOffset" : 24608
        },
        {
            "buffer" : 0,
            "byteLength" : 1020,
            "byteOffset" : 24964
        },
        {
            "buffer" : 0,
            "byteLength" : 1020,
            "byteOffset" : 25984
        },
        {
            "buffer" : 0,
            "byteLength" : 680,
            "byteOffset" : 27004
        },
        {
            "buffer" : 0,
            "byteLength" : 180,
            "byteOffset" : 27684
        },
        {
            "buffer" : 0,
            "byteLength" : 1068,
            "byteOffset" : 27864
        },
        {
            "buffer" : 0,
            "byteLength" : 1068,
            "byteOffset" : 28932
        },
        {
            "buffer" : 0,
            "byteLength" : 712,
            "byteOffset" : 30000
        },
        {
            "buffer" : 0,
            "byteLength" : 180,
            "byteOffset" : 30712
        },
        {
            "buffer" : 0,
            "byteLength" : 960,
            "byteOffset" : 30892
        },
        {
            "buffer" : 0,
            "byteLength" : 960,
            "byteOffset" : 31852
        },
        {
            "buffer" : 0,
            "byteLength" : 640,
            "byteOffset" : 32812
        },
        {
            "buffer" : 0,
            "byteLength" : 180,
            "byteOffset" : 33452
        },
        {
            "buffer" : 0,
            "byteLength" : 960,
            "byteOffset" : 33632
        },
        {
            "buffer" : 0,
            "byteLength" : 960,
            "byteOffset" : 34592
        },
        {
            "buffer" : 0,
            "byteLength" : 640,
            "byteOffset" : 35552
        },
        {
            "buffer" : 0,
            "byteLength" : 180,
            "byteOffset" : 36192
        },
        {
            "buffer" : 0,
            "byteLength" : 2040,
            "byteOffset" : 36372
        },
        {
            "buffer" : 0,
            "byteLength" : 2040,
            "byteOffset" : 38412
        },
        {
            "buffer" : 0,
            "byteLength" : 1360,
            "byteOffset" : 40452
        },
        {
            "buffer" : 0,
            "byteLength" : 528,
            "byteOffset" : 41812
        },
        {
            "buffer" : 0,
            "byteLength" : 400,
            "byteOffset" : 42340
        },
        {
            "buffer" : 0,
            "byteLength" : 1600,
            "byteOffset" : 42740
        }
    ],
    "buffers" : [
        {
            "byteLength" : 44340,
            "uri" : "data:application/octet-stream;base64,"
        }
    ]
}
