{
    "asset" : {
        "generator" : "Khronos glTF Blender I/O v1.4.40",
        "version" : "2.0"
    },
    "scene" : 0,
    "scenes" : [
        {
            "name" : "Scene",
            "nodes" : [
                0,
                1
            ]
        }
    ],
    "nodes" : [
        {
            "mesh" : 0,
            "name" : "Cube.003",
            "rotation" : [
                0,
                1,
                0,
                -4.371138828673793e-08
            ],
            "scale" : [
                0.10713648796081543,
                0.10815393179655075,
                0.09638909250497818
            ],
            "translation" : [
                0.09509746730327606,
                -0.024051427841186523,
                0.36820825934410095
            ]
        },
        {
            "mesh" : 1,
            "name" : "Cone",
            "rotation" : [
                -0.14386160671710968,
                0.004826708696782589,
                -0.989585816860199,
                0.0007026357343420386
            ],
            "scale" : [
                0.16227945685386658,
                0.21865256130695343,
                0.13531720638275146
            ],
            "translation" : [
                0.11284390091896057,
                -1.7499579191207886,
                0.369869589805603
            ]
        }
    ],
    "animations" : [
        {
            "channels" : [
                {
                    "sampler" : 0,
                    "target" : {
                        "node" : 1,
                        "path" : "rotation"
                    }
                }
            ],
            "name" : "ConeAction.001",
            "samplers" : [
                {
                    "input" : 40,
                    "interpolation" : "LINEAR",
                    "output" : 41
                }
            ]
        }
    ],
    "materials" : [
        {
            "doubleSided" : true,
            "name" : "Material.013",
            "pbrMetallicRoughness" : {
                "baseColorFactor" : [
                    0.28314879536628723,
                    0.30946895480155945,
                    0.3277781009674072,
                    1
                ],
                "metallicFactor" : 0,
                "roughnessFactor" : 0.3120567500591278
            }
        },
        {
            "doubleSided" : true,
            "name" : "Material.005",
            "pbrMetallicRoughness" : {
                "baseColorFactor" : [
                    0.800000011920929,
                    0.800000011920929,
                    0.800000011920929,
                    1
                ],
                "metallicFactor" : 0,
                "roughnessFactor" : 1
            }
        },
        {
            "doubleSided" : true,
            "name" : "Material.008",
            "pbrMetallicRoughness" : {
                "baseColorFactor" : [
                    0.800000011920929,
                    0.800000011920929,
                    0.800000011920929,
                    1
                ],
                "metallicFactor" : 0,
                "roughnessFactor" : 1
            }
        },
        {
            "doubleSided" : true,
            "name" : "Material.009",
            "pbrMetallicRoughness" : {
                "baseColorFactor" : [
                    0,
                    0,
                    0,
                    1
                ],
                "metallicFactor" : 0,
                "roughnessFactor" : 1
            }
        },
        {
            "doubleSided" : true,
            "name" : "Material.010",
            "pbrMetallicRoughness" : {
                "baseColorFactor" : [
                    0,
                    0,
                    0,
                    1
                ],
                "metallicFactor" : 0,
                "roughnessFactor" : 1
            }
        },
        {
            "doubleSided" : true,
            "name" : "Material.011",
            "pbrMetallicRoughness" : {
                "baseColorFactor" : [
                    0.29613831639289856,
                    0.33716365694999695,
                    0.34670406579971313,
                    1
                ],
                "metallicFactor" : 0,
                "roughnessFactor" : 0.5
            }
        },
        {
            "doubleSided" : true,
            "name" : "Material.012",
            "pbrMetallicRoughness" : {
                "baseColorFactor" : [
                    0.3126567006111145,
                    0.37574952840805054,
                    0.37574952840805054,
                    1
                ],
                "metallicFactor" : 0,
                "roughnessFactor" : 0.5
            }
        },
        {
            "doubleSided" : true,
            "name" : "Material.014",
            "pbrMetallicRoughness" : {
                "baseColorFactor" : [
                    0.29177066683769226,
                    0.3185468018054962,
                    0.33716365694999695,
                    1
                ],
                "metallicFactor" : 0,
                "roughnessFactor" : 0.5
            }
        },
        {
            "doubleSided" : true,
            "name" : "Material.015",
            "pbrMetallicRoughness" : {
                "baseColorFactor" : [
                    0.3976750075817108,
                    0.8000000715255737,
                    0.7546032667160034,
                    1
                ],
                "metallicFactor" : 0,
                "roughnessFactor" : 0.5
            }
        },
        {
            "doubleSided" : true,
            "name" : "Material.017",
            "pbrMetallicRoughness" : {
                "baseColorFactor" : [
                    0.29177066683769226,
                    0.3185468018054962,
                    0.33716365694999695,
                    1
                ],
                "metallicFactor" : 0,
                "roughnessFactor" : 0.5
            }
        },
        {
            "doubleSided" : true,
            "name" : "Material.016",
            "pbrMetallicRoughness" : {
                "baseColorFactor" : [
                    0.0024282161612063646,
                    1,
                    1,
                    1
                ],
                "metallicFactor" : 0,
                "roughnessFactor" : 0.5
            }
        }
    ],
    "meshes" : [
        {
            "name" : "Cube.007",
            "primitives" : [
                {
                    "attributes" : {
                        "POSITION" : 0,
                        "NORMAL" : 1,
                        "TEXCOORD_0" : 2
                    },
                    "indices" : 3,
                    "material" : 0
                },
                {
                    "attributes" : {
                        "POSITION" : 4,
                        "NORMAL" : 5,
                        "TEXCOORD_0" : 6
                    },
                    "indices" : 7,
                    "material" : 1
                },
                {
                    "attributes" : {
                        "POSITION" : 8,
                        "NORMAL" : 9,
                        "TEXCOORD_0" : 10
                    },
                    "indices" : 7,
                    "material" : 2
                },
                {
                    "attributes" : {
                        "POSITION" : 11,
                        "NORMAL" : 12,
                        "TEXCOORD_0" : 13
                    },
                    "indices" : 7,
                    "material" : 3
                },
                {
                    "attributes" : {
                        "POSITION" : 14,
                        "NORMAL" : 15,
                        "TEXCOORD_0" : 16
                    },
                    "indices" : 7,
                    "material" : 4
                },
                {
                    "attributes" : {
                        "POSITION" : 17,
                        "NORMAL" : 18,
                        "TEXCOORD_0" : 19
                    },
                    "indices" : 20,
                    "material" : 5
                },
                {
                    "attributes" : {
                        "POSITION" : 21,
                        "NORMAL" : 22,
                        "TEXCOORD_0" : 23
                    },
                    "indices" : 24,
                    "material" : 6
                },
                {
                    "attributes" : {
                        "POSITION" : 25,
                        "NORMAL" : 26,
                        "TEXCOORD_0" : 27
                    },
                    "indices" : 28,
                    "material" : 7
                },
                {
                    "attributes" : {
                        "POSITION" : 29,
                        "NORMAL" : 30,
                        "TEXCOORD_0" : 31
                    },
                    "indices" : 32,
                    "material" : 8
                },
                {
                    "attributes" : {
                        "POSITION" : 33,
                        "NORMAL" : 34,
                        "TEXCOORD_0" : 35
                    },
                    "indices" : 3,
                    "material" : 9
                }
            ]
        },
        {
            "name" : "Cone.001",
            "primitives" : [
                {
                    "attributes" : {
                        "POSITION" : 36,
                        "NORMAL" : 37,
                        "TEXCOORD_0" : 38
                    },
                    "indices" : 39,
                    "material" : 10
                }
            ]
        }
    ],
    "accessors" : [
        {
            "bufferView" : 0,
            "componentType" : 5126,
            "count" : 24,
            "max" : [
                0.9675652980804443,
                -3.4869861602783203,
                0.8533903956413269
            ],
            "min" : [
                -1.0324347019195557,
                -5.48698616027832,
                -1.1466095447540283
            ],
            "type" : "VEC3"
        },
        {
            "bufferView" : 1,
            "componentType" : 5126,
            "count" : 24,
            "type" : "VEC3"
        },
        {
            "bufferView" : 2,
            "componentType" : 5126,
            "count" : 24,
            "type" : "VEC2"
        },
        {
            "bufferView" : 3,
            "componentType" : 5123,
            "count" : 36,
            "type" : "SCALAR"
        },
        {
            "bufferView" : 4,
            "componentType" : 5126,
            "count" : 32,
            "max" : [
                -0.19692575931549072,
                -0.37131309509277344,
                1.3089776039123535
            ],
            "min" : [
                -0.9906415939331055,
                -1.157562255859375,
                1.3089776039123535
            ],
            "type" : "VEC3"
        },
        {
            "bufferView" : 5,
            "componentType" : 5126,
            "count" : 32,
            "type" : "VEC3"
        },
        {
            "bufferView" : 6,
            "componentType" : 5126,
            "count" : 32,
            "type" : "VEC2"
        },
        {
            "bufferView" : 7,
            "componentType" : 5123,
            "count" : 90,
            "type" : "SCALAR"
        },
        {
            "bufferView" : 8,
            "componentType" : 5126,
            "count" : 32,
            "max" : [
                1.0897502899169922,
                -0.37131309509277344,
                1.3089776039123535
            ],
            "min" : [
                0.29603448510169983,
                -1.157562255859375,
                1.3089776039123535
            ],
            "type" : "VEC3"
        },
        {
            "bufferView" : 9,
            "componentType" : 5126,
            "count" : 32,
            "type" : "VEC3"
        },
        {
            "bufferView" : 10,
            "componentType" : 5126,
            "count" : 32,
            "type" : "VEC2"
        },
        {
            "bufferView" : 11,
            "componentType" : 5126,
            "count" : 32,
            "max" : [
                0.8913214206695557,
                -0.5678753852844238,
                1.3316617012023926
            ],
            "min" : [
                0.4944634735584259,
                -0.9609999656677246,
                1.3316617012023926
            ],
            "type" : "VEC3"
        },
        {
            "bufferView" : 12,
            "componentType" : 5126,
            "count" : 32,
            "type" : "VEC3"
        },
        {
            "bufferView" : 13,
            "componentType" : 5126,
            "count" : 32,
            "type" : "VEC2"
        },
        {
            "bufferView" : 14,
            "componentType" : 5126,
            "count" : 32,
            "max" : [
                -0.3177790939807892,
                -0.5678753852844238,
                1.3316617012023926
            ],
            "min" : [
                -0.714637041091919,
                -0.9609999656677246,
                1.3316617012023926
            ],
            "type" : "VEC3"
        },
        {
            "bufferView" : 15,
            "componentType" : 5126,
            "count" : 32,
            "type" : "VEC3"
        },
        {
            "bufferView" : 16,
            "componentType" : 5126,
            "count" : 32,
            "type" : "VEC2"
        },
        {
            "bufferView" : 17,
            "componentType" : 5126,
            "count" : 498,
            "max" : [
                2.021566867828369,
                -3.9272642135620117,
                1.5273520946502686
            ],
            "min" : [
                -2.131074905395508,
                -12.336350440979004,
                -1.8085403442382812
            ],
            "type" : "VEC3"
        },
        {
            "bufferView" : 18,
            "componentType" : 5126,
            "count" : 498,
            "type" : "VEC3"
        },
        {
            "bufferView" : 19,
            "componentType" : 5126,
            "count" : 498,
            "type" : "VEC2"
        },
        {
            "bufferView" : 20,
            "componentType" : 5123,
            "count" : 564,
            "type" : "SCALAR"
        },
        {
            "bufferView" : 21,
            "componentType" : 5126,
            "count" : 26,
            "max" : [
                1.6579945087432861,
                -12.253615379333496,
                1.498880386352539
            ],
            "min" : [
                -1.7675023078918457,
                -13.37806224822998,
                -1.7800688743591309
            ],
            "type" : "VEC3"
        },
        {
            "bufferView" : 22,
            "componentType" : 5126,
            "count" : 26,
            "type" : "VEC3"
        },
        {
            "bufferView" : 23,
            "componentType" : 5126,
            "count" : 26,
            "type" : "VEC2"
        },
        {
            "bufferView" : 24,
            "componentType" : 5123,
            "count" : 36,
            "type" : "SCALAR"
        },
        {
            "bufferView" : 25,
            "componentType" : 5126,
            "count" : 28,
            "max" : [
                3.1162869930267334,
                -4.474471569061279,
                0.9847502112388611
            ],
            "min" : [
                2.2303836345672607,
                -5.904198169708252,
                -1.2005336284637451
            ],
            "type" : "VEC3"
        },
        {
            "bufferView" : 26,
            "componentType" : 5126,
            "count" : 28,
            "type" : "VEC3"
        },
        {
            "bufferView" : 27,
            "componentType" : 5126,
            "count" : 28,
            "type" : "VEC2"
        },
        {
            "bufferView" : 28,
            "componentType" : 5123,
            "count" : 36,
            "type" : "SCALAR"
        },
        {
            "bufferView" : 29,
            "componentType" : 5126,
            "count" : 166,
            "max" : [
                1.5474313497543335,
                0.0014271736145019531,
                1.297062635421753
            ],
            "min" : [
                -1.6383837461471558,
                -3.192443370819092,
                -1.9182977676391602
            ],
            "type" : "VEC3"
        },
        {
            "bufferView" : 30,
            "componentType" : 5126,
            "count" : 166,
            "type" : "VEC3"
        },
        {
            "bufferView" : 31,
            "componentType" : 5126,
            "count" : 166,
            "type" : "VEC2"
        },
        {
            "bufferView" : 32,
            "componentType" : 5123,
            "count" : 264,
            "type" : "SCALAR"
        },
        {
            "bufferView" : 33,
            "componentType" : 5126,
            "count" : 24,
            "max" : [
                -2.3287861347198486,
                -4.474471569061279,
                0.9847502112388611
            ],
            "min" : [
                -3.2146899700164795,
                -5.904198169708252,
                -1.2005336284637451
            ],
            "type" : "VEC3"
        },
        {
            "bufferView" : 34,
            "componentType" : 5126,
            "count" : 24,
            "type" : "VEC3"
        },
        {
            "bufferView" : 35,
            "componentType" : 5126,
            "count" : 24,
            "type" : "VEC2"
        },
        {
            "bufferView" : 36,
            "componentType" : 5126,
            "count" : 125,
            "max" : [
                1,
                1,
                1
            ],
            "min" : [
                -1,
                -1,
                -1
            ],
            "type" : "VEC3"
        },
        {
            "bufferView" : 37,
            "componentType" : 5126,
            "count" : 125,
            "type" : "VEC3"
        },
        {
            "bufferView" : 38,
            "componentType" : 5126,
            "count" : 125,
            "type" : "VEC2"
        },
        {
            "bufferView" : 39,
            "componentType" : 5123,
            "count" : 177,
            "type" : "SCALAR"
        },
        {
            "bufferView" : 40,
            "componentType" : 5126,
            "count" : 100,
            "max" : [
                4.166666666666667
            ],
            "min" : [
                0.041666666666666664
            ],
            "type" : "SCALAR"
        },
        {
            "bufferView" : 41,
            "componentType" : 5126,
            "count" : 100,
            "type" : "VEC4"
        }
    ],
    "bufferViews" : [
        {
            "buffer" : 0,
            "byteLength" : 288,
            "byteOffset" : 0
        },
        {
            "buffer" : 0,
            "byteLength" : 288,
            "byteOffset" : 288
        },
        {
            "buffer" : 0,
            "byteLength" : 192,
            "byteOffset" : 576
        },
        {
            "buffer" : 0,
            "byteLength" : 72,
            "byteOffset" : 768
        },
        {
            "buffer" : 0,
            "byteLength" : 384,
            "byteOffset" : 840
        },
        {
            "buffer" : 0,
            "byteLength" : 384,
            "byteOffset" : 1224
        },
        {
            "buffer" : 0,
            "byteLength" : 256,
            "byteOffset" : 1608
        },
        {
            "buffer" : 0,
            "byteLength" : 180,
            "byteOffset" : 1864
        },
        {
            "buffer" : 0,
            "byteLength" : 384,
            "byteOffset" : 2044
        },
        {
            "buffer" : 0,
            "byteLength" : 384,
            "byteOffset" : 2428
        },
        {
            "buffer" : 0,
            "byteLength" : 256,
            "byteOffset" : 2812
        },
        {
            "buffer" : 0,
            "byteLength" : 384,
            "byteOffset" : 3068
        },
        {
            "buffer" : 0,
            "byteLength" : 384,
            "byteOffset" : 3452
        },
        {
            "buffer" : 0,
            "byteLength" : 256,
            "byteOffset" : 3836
        },
        {
            "buffer" : 0,
            "byteLength" : 384,
            "byteOffset" : 4092
        },
        {
            "buffer" : 0,
            "byteLength" : 384,
            "byteOffset" : 4476
        },
        {
            "buffer" : 0,
            "byteLength" : 256,
            "byteOffset" : 4860
        },
        {
            "buffer" : 0,
            "byteLength" : 5976,
            "byteOffset" : 5116
        },
        {
            "buffer" : 0,
            "byteLength" : 5976,
            "byteOffset" : 11092
        },
        {
            "buffer" : 0,
            "byteLength" : 3984,
            "byteOffset" : 17068
        },
        {
            "buffer" : 0,
            "byteLength" : 1128,
            "byteOffset" : 21052
        },
        {
            "buffer" : 0,
            "byteLength" : 312,
            "byteOffset" : 22180
        },
        {
            "buffer" : 0,
            "byteLength" : 312,
            "byteOffset" : 22492
        },
        {
            "buffer" : 0,
            "byteLength" : 208,
            "byteOffset" : 22804
        },
        {
            "buffer" : 0,
            "byteLength" : 72,
            "byteOffset" : 23012
        },
        {
            "buffer" : 0,
            "byteLength" : 336,
            "byteOffset" : 23084
        },
        {
            "buffer" : 0,
            "byteLength" : 336,
            "byteOffset" : 23420
        },
        {
            "buffer" : 0,
            "byteLength" : 224,
            "byteOffset" : 23756
        },
        {
            "buffer" : 0,
            "byteLength" : 72,
            "byteOffset" : 23980
        },
        {
            "buffer" : 0,
            "byteLength" : 1992,
            "byteOffset" : 24052
        },
        {
            "buffer" : 0,
            "byteLength" : 1992,
            "byteOffset" : 26044
        },
        {
            "buffer" : 0,
            "byteLength" : 1328,
            "byteOffset" : 28036
        },
        {
            "buffer" : 0,
            "byteLength" : 528,
            "byteOffset" : 29364
        },
        {
            "buffer" : 0,
            "byteLength" : 288,
            "byteOffset" : 29892
        },
        {
            "buffer" : 0,
            "byteLength" : 288,
            "byteOffset" : 30180
        },
        {
            "buffer" : 0,
            "byteLength" : 192,
            "byteOffset" : 30468
        },
        {
            "buffer" : 0,
            "byteLength" : 1500,
            "byteOffset" : 30660
        },
        {
            "buffer" : 0,
            "byteLength" : 1500,
            "byteOffset" : 32160
        },
        {
            "buffer" : 0,
            "byteLength" : 1000,
            "byteOffset" : 33660
        },
        {
            "buffer" : 0,
            "byteLength" : 354,
            "byteOffset" : 34660
        },
        {
            "buffer" : 0,
            "byteLength" : 400,
            "byteOffset" : 35016
        },
        {
            "buffer" : 0,
            "byteLength" : 1600,
            "byteOffset" : 35416
        }
    ],
    "buffers" : [
        {
            "byteLength" : 37016,
            "uri" : "data:application/octet-stream;base64,"
        }
    ]
}
