{
    "asset" : {
        "generator" : "Khronos glTF Blender I/O v1.4.40",
        "version" : "2.0"
    },
    "scene" : 0,
    "scenes" : [
        {
            "name" : "Scene",
            "nodes" : [
                0
            ]
        }
    ],
    "nodes" : [
        {
            "mesh" : 0,
            "name" : "HeadTrack"
        }
    ],
    "materials" : [
        {
            "doubleSided" : true,
            "name" : "BodyMetal",
            "pbrMetallicRoughness" : {
                "baseColorFactor" : [
                    0.2317705750465393,
                    0.2317705750465393,
                    0.2317705750465393,
                    1
                ],
                "metallicFactor" : 0.17098447680473328,
                "roughnessFactor" : 0.7616580128669739
            }
        },
        {
            "doubleSided" : true,
            "name" : "IrisMetal",
            "pbrMetallicRoughness" : {
                "baseColorFactor" : [
                    0.8000000715255737,
                    0.176744282245636,
                    0,
                    1
                ],
                "metallicFactor" : 0,
                "roughnessFactor" : 0.5
            }
        },
        {
            "doubleSided" : true,
            "emissiveFactor" : [
                1,
                1,
                1
            ],
            "name" : "EyeLight",
            "pbrMetallicRoughness" : {
                "baseColorFactor" : [
                    0.7752775549888611,
                    0.7332523465156555,
                    0.8000000715255737,
                    1
                ],
                "metallicFactor" : 0,
                "roughnessFactor" : 0.5
            }
        }
    ],
    "meshes" : [
        {
            "name" : "Cube.001",
            "primitives" : [
                {
                    "attributes" : {
                        "POSITION" : 0,
                        "NORMAL" : 1,
                        "TEXCOORD_0" : 2,
                        "COLOR_0" : 3
                    },
                    "indices" : 4,
                    "material" : 0
                },
                {
                    "attributes" : {
                        "POSITION" : 5,
                        "NORMAL" : 6,
                        "TEXCOORD_0" : 7,
                        "COLOR_0" : 8
                    },
                    "indices" : 9,
                    "material" : 1
                },
                {
                    "attributes" : {
                        "POSITION" : 10,
                        "NORMAL" : 11,
                        "TEXCOORD_0" : 12,
                        "COLOR_0" : 13
                    },
                    "indices" : 14,
                    "material" : 2
                }
            ]
        }
    ],
    "accessors" : [
        {
            "bufferView" : 0,
            "componentType" : 5126,
            "count" : 313,
            "max" : [
                0.27898573875427246,
                0.13949286937713623,
                0.13949289917945862
            ],
            "min" : [
                -0.27898573875427246,
                -0.13949286937713623,
                -0.13949289917945862
            ],
            "type" : "VEC3"
        },
        {
            "bufferView" : 1,
            "componentType" : 5126,
            "count" : 313,
            "type" : "VEC3"
        },
        {
            "bufferView" : 2,
            "componentType" : 5126,
            "count" : 313,
            "type" : "VEC2"
        },
        {
            "bufferView" : 3,
            "componentType" : 5123,
            "count" : 313,
            "normalized" : true,
            "type" : "VEC4"
        },
        {
            "bufferView" : 4,
            "componentType" : 5123,
            "count" : 372,
            "type" : "SCALAR"
        },
        {
            "bufferView" : 5,
            "componentType" : 5126,
            "count" : 4905,
            "max" : [
                0.2802390456199646,
                0.13949286937713623,
                0.13949289917945862
            ],
            "min" : [
                -0.28735992312431335,
                -0.22830802202224731,
                -0.13949289917945862
            ],
            "type" : "VEC3"
        },
        {
            "bufferView" : 6,
            "componentType" : 5126,
            "count" : 4905,
            "type" : "VEC3"
        },
        {
            "bufferView" : 7,
            "componentType" : 5126,
            "count" : 4905,
            "type" : "VEC2"
        },
        {
            "bufferView" : 8,
            "componentType" : 5123,
            "count" : 4905,
            "normalized" : true,
            "type" : "VEC4"
        },
        {
            "bufferView" : 9,
            "componentType" : 5123,
            "count" : 5388,
            "type" : "SCALAR"
        },
        {
            "bufferView" : 10,
            "componentType" : 5126,
            "count" : 75,
            "max" : [
                0.195277139544487,
                0.05578429996967316,
                -0.11065793037414551
            ],
            "min" : [
                -0.19527718424797058,
                -0.05578429996967316,
                -0.1106579601764679
            ],
            "type" : "VEC3"
        },
        {
            "bufferView" : 11,
            "componentType" : 5126,
            "count" : 75,
            "type" : "VEC3"
        },
        {
            "bufferView" : 12,
            "componentType" : 5126,
            "count" : 75,
            "type" : "VEC2"
        },
        {
            "bufferView" : 13,
            "componentType" : 5123,
            "count" : 75,
            "normalized" : true,
            "type" : "VEC4"
        },
        {
            "bufferView" : 14,
            "componentType" : 5123,
            "count" : 84,
            "type" : "SCALAR"
        }
    ],
    "bufferViews" : [
        {
            "buffer" : 0,
            "byteLength" : 3756,
            "byteOffset" : 0
        },
        {
            "buffer" : 0,
            "byteLength" : 3756,
            "byteOffset" : 3756
        },
        {
            "buffer" : 0,
            "byteLength" : 2504,
            "byteOffset" : 7512
        },
        {
            "buffer" : 0,
            "byteLength" : 2504,
            "byteOffset" : 10016
        },
        {
            "buffer" : 0,
            "byteLength" : 744,
            "byteOffset" : 12520
        },
        {
            "buffer" : 0,
            "byteLength" : 58860,
            "byteOffset" : 13264
        },
        {
            "buffer" : 0,
            "byteLength" : 58860,
            "byteOffset" : 72124
        },
        {
            "buffer" : 0,
            "byteLength" : 39240,
            "byteOffset" : 130984
        },
        {
            "buffer" : 0,
            "byteLength" : 39240,
            "byteOffset" : 170224
        },
        {
            "buffer" : 0,
            "byteLength" : 10776,
            "byteOffset" : 209464
        },
        {
            "buffer" : 0,
            "byteLength" : 900,
            "byteOffset" : 220240
        },
        {
            "buffer" : 0,
            "byteLength" : 900,
            "byteOffset" : 221140
        },
        {
            "buffer" : 0,
            "byteLength" : 600,
            "byteOffset" : 222040
        },
        {
            "buffer" : 0,
            "byteLength" : 600,
            "byteOffset" : 222640
        },
        {
            "buffer" : 0,
            "byteLength" : 168,
            "byteOffset" : 223240
        }
    ],
    "buffers" : [
        {
            "byteLength" : 223408,
            "uri" : "data:application/octet-stream;base64,"
        }
    ]
}
