{
    "asset" : {
        "generator" : "Khronos glTF Blender I/O v1.4.40",
        "version" : "2.0"
    },
    "scene" : 0,
    "scenes" : [
        {
            "name" : "Scene",
            "nodes" : [
                0
            ]
        }
    ],
    "nodes" : [
        {
            "mesh" : 0,
            "name" : "HeadTrack"
        }
    ],
    "materials" : [
        {
            "doubleSided" : true,
            "name" : "BodyMetal",
            "pbrMetallicRoughness" : {
                "baseColorFactor" : [
                    0.2317705750465393,
                    0.2317705750465393,
                    0.2317705750465393,
                    1
                ],
                "metallicFactor" : 0.17098447680473328,
                "roughnessFactor" : 0.7616580128669739
            }
        },
        {
            "doubleSided" : true,
            "name" : "IrisMetal",
            "pbrMetallicRoughness" : {
                "baseColorFactor" : [
                    0.8000000715255737,
                    0.176744282245636,
                    0,
                    1
                ],
                "metallicFactor" : 0,
                "roughnessFactor" : 0.5
            }
        },
        {
            "doubleSided" : true,
            "emissiveFactor" : [
                1,
                1,
                1
            ],
            "name" : "EyeLight",
            "pbrMetallicRoughness" : {
                "baseColorFactor" : [
                    0.7752775549888611,
                    0.7332523465156555,
                    0.8000000715255737,
                    1
                ],
                "metallicFactor" : 0,
                "roughnessFactor" : 0.5
            }
        }
    ],
    "meshes" : [
        {
            "name" : "Cube.001",
            "primitives" : [
                {
                    "attributes" : {
                        "POSITION" : 0,
                        "NORMAL" : 1,
                        "TEXCOORD_0" : 2,
                        "COLOR_0" : 3
                    },
                    "indices" : 4,
                    "material" : 0
                },
                {
                    "attributes" : {
                        "POSITION" : 5,
                        "NORMAL" : 6,
                        "TEXCOORD_0" : 7,
                        "COLOR_0" : 8
                    },
                    "indices" : 9,
                    "material" : 1
                },
                {
                    "attributes" : {
                        "POSITION" : 10,
                        "NORMAL" : 11,
                        "TEXCOORD_0" : 12,
                        "COLOR_0" : 13
                    },
                    "indices" : 14,
                    "material" : 2
                }
            ]
        }
    ],
    "accessors" : [
        {
            "bufferView" : 0,
            "componentType" : 5126,
            "count" : 158,
            "max" : [
                0.27898573875427246,
                0.13949286937713623,
                0.13949286937713623
            ],
            "min" : [
                -0.27898573875427246,
                -0.13949286937713623,
                -0.13949286937713623
            ],
            "type" : "VEC3"
        },
        {
            "bufferView" : 1,
            "componentType" : 5126,
            "count" : 158,
            "type" : "VEC3"
        },
        {
            "bufferView" : 2,
            "componentType" : 5126,
            "count" : 158,
            "type" : "VEC2"
        },
        {
            "bufferView" : 3,
            "componentType" : 5123,
            "count" : 158,
            "normalized" : true,
            "type" : "VEC4"
        },
        {
            "bufferView" : 4,
            "componentType" : 5123,
            "count" : 372,
            "type" : "SCALAR"
        },
        {
            "bufferView" : 5,
            "componentType" : 5126,
            "count" : 3911,
            "max" : [
                0.28735992312431335,
                0.13949286937713623,
                0.13949286937713623
            ],
            "min" : [
                -0.2802390456199646,
                -0.22830802202224731,
                -0.13949286937713623
            ],
            "type" : "VEC3"
        },
        {
            "bufferView" : 6,
            "componentType" : 5126,
            "count" : 3911,
            "type" : "VEC3"
        },
        {
            "bufferView" : 7,
            "componentType" : 5126,
            "count" : 3911,
            "type" : "VEC2"
        },
        {
            "bufferView" : 8,
            "componentType" : 5123,
            "count" : 3911,
            "normalized" : true,
            "type" : "VEC4"
        },
        {
            "bufferView" : 9,
            "componentType" : 5123,
            "count" : 5388,
            "type" : "SCALAR"
        },
        {
            "bufferView" : 10,
            "componentType" : 5126,
            "count" : 32,
            "max" : [
                0.1952771693468094,
                0.05578429996967316,
                0.1106579452753067
            ],
            "min" : [
                -0.1952771544456482,
                -0.05578429996967316,
                0.1106579452753067
            ],
            "type" : "VEC3"
        },
        {
            "bufferView" : 11,
            "componentType" : 5126,
            "count" : 32,
            "type" : "VEC3"
        },
        {
            "bufferView" : 12,
            "componentType" : 5126,
            "count" : 32,
            "type" : "VEC2"
        },
        {
            "bufferView" : 13,
            "componentType" : 5123,
            "count" : 32,
            "normalized" : true,
            "type" : "VEC4"
        },
        {
            "bufferView" : 14,
            "componentType" : 5123,
            "count" : 84,
            "type" : "SCALAR"
        }
    ],
    "bufferViews" : [
        {
            "buffer" : 0,
            "byteLength" : 1896,
            "byteOffset" : 0
        },
        {
            "buffer" : 0,
            "byteLength" : 1896,
            "byteOffset" : 1896
        },
        {
            "buffer" : 0,
            "byteLength" : 1264,
            "byteOffset" : 3792
        },
        {
            "buffer" : 0,
            "byteLength" : 1264,
            "byteOffset" : 5056
        },
        {
            "buffer" : 0,
            "byteLength" : 744,
            "byteOffset" : 6320
        },
        {
            "buffer" : 0,
            "byteLength" : 46932,
            "byteOffset" : 7064
        },
        {
            "buffer" : 0,
            "byteLength" : 46932,
            "byteOffset" : 53996
        },
        {
            "buffer" : 0,
            "byteLength" : 31288,
            "byteOffset" : 100928
        },
        {
            "buffer" : 0,
            "byteLength" : 31288,
            "byteOffset" : 132216
        },
        {
            "buffer" : 0,
            "byteLength" : 10776,
            "byteOffset" : 163504
        },
        {
            "buffer" : 0,
            "byteLength" : 384,
            "byteOffset" : 174280
        },
        {
            "buffer" : 0,
            "byteLength" : 384,
            "byteOffset" : 174664
        },
        {
            "buffer" : 0,
            "byteLength" : 256,
            "byteOffset" : 175048
        },
        {
            "buffer" : 0,
            "byteLength" : 256,
            "byteOffset" : 175304
        },
        {
            "buffer" : 0,
            "byteLength" : 168,
            "byteOffset" : 175560
        }
    ],
    "buffers" : [
        {
            "byteLength" : 175728,
            "uri" : "data:application/octet-stream;base64,"
        }
    ]
}
