# Blender v2.91.0 OBJ File: 'Tree.blend'
# www.blender.org
mtllib Tree1.mtl
o Cylinder_Cylinder.001
v -0.000000 -0.128980 -1.139026
v 0.000000 10.466130 0.000000
v 0.669503 -0.486607 -0.921491
v 0.000000 10.466130 0.000000
v 1.083278 -0.128980 -0.351978
v 0.000000 10.466130 0.000000
v 1.083278 -0.486607 0.351978
v 0.000000 10.466130 0.000000
v 0.669502 -0.128980 0.921491
v 0.000000 10.466130 0.000000
v -0.000000 -0.486607 1.139026
v 0.000000 10.466130 0.000000
v -0.669503 -0.128980 0.921491
v 0.000000 10.466130 0.000000
v -1.083278 -0.486607 0.351978
v 0.000000 10.466130 0.000000
v -1.083278 -0.128980 -0.351979
v 0.000000 10.466130 0.000000
v -0.669502 -0.486607 -0.921492
v 0.000000 10.466130 0.000000
v 0.000000 5.652960 -0.712190
v 0.418615 5.295332 -0.576174
v 0.677333 5.652960 -0.220079
v 0.677333 5.295332 0.220079
v 0.418615 5.652960 0.576174
v -0.000000 5.295332 0.712190
v -0.418615 5.652960 0.576174
v -0.677333 5.295332 0.220079
v -0.677333 5.652960 -0.220079
v -0.418614 5.295332 -0.576174
v 0.245306 6.012782 -0.337634
v 0.396913 6.012782 -0.128965
v 0.396913 6.012782 0.128965
v 0.245306 6.012782 0.337634
v -0.000000 6.012782 0.417339
v -0.245306 6.012782 0.337634
v -0.396913 6.012782 0.128965
v -0.396913 6.012782 -0.128965
v -0.245306 6.012782 -0.337634
v 0.000000 6.012782 -0.417339
v 0.563046 2.876609 -0.774967
v 0.911028 2.518981 -0.296011
v 0.911028 2.876609 0.296011
v 0.563046 2.518981 0.774967
v -0.000000 2.876609 0.957912
v -0.563047 2.518981 0.774967
v -0.911028 2.876609 0.296011
v -0.911028 2.518981 -0.296011
v -0.563046 2.876609 -0.774967
v -0.000000 2.518981 -0.957912
v 0.372333 3.061690 -0.512473
v 0.602448 3.061690 -0.195747
v 0.602448 3.061690 0.195747
v 0.372333 3.061690 0.512473
v -0.000000 3.061690 0.633451
v -0.372333 3.061690 0.512473
v -0.602448 3.061690 0.195747
v -0.602448 3.061690 -0.195747
v -0.372333 3.061690 -0.512473
v -0.000000 3.061690 -0.633451
v -0.382123 0.273550 -0.124159
v -0.757735 -1.929448 -0.246203
v -0.382123 0.273550 0.124159
v -0.757735 -1.929448 0.246203
v -0.236165 0.273550 0.325054
v -0.468306 -1.929448 0.644568
v -0.000000 0.273550 0.401788
v -0.000000 -1.929448 0.796730
v 0.236165 0.273550 0.325054
v 0.468306 -1.929448 0.644568
v 0.382123 0.273550 0.124159
v 0.757735 -1.929448 0.246203
v 0.382123 0.273550 -0.124159
v 0.757735 -1.929448 -0.246203
v 0.236165 0.273550 -0.325054
v 0.468306 -1.929448 -0.644568
v 0.000000 0.273550 -0.401788
v 0.000000 -1.929448 -0.796730
v -0.468306 -1.929448 -0.644568
v -0.236165 0.273550 -0.325054
v 0.323126 -1.346298 0.444744
v 0.522828 -1.346298 0.169877
v 0.522828 -1.346298 -0.169877
v 0.323126 -1.346298 -0.444744
v 0.000000 -1.346298 -0.549734
v -0.000000 -1.346298 0.549734
v -0.323126 -1.346298 0.444744
v -0.522828 -1.346298 0.169877
v -0.522828 -1.346298 -0.169877
v -0.323125 -1.346298 -0.444744
vt 0.000000 0.000000
vt 1.000000 0.000000
vt 1.000000 1.000000
vt 0.000000 1.000000
vt 0.000000 0.000000
vt 1.000000 0.000000
vt 1.000000 1.000000
vt 0.000000 1.000000
vt 0.000000 0.000000
vt 1.000000 0.000000
vt 1.000000 1.000000
vt 0.000000 1.000000
vt 0.000000 0.000000
vt 1.000000 0.000000
vt 1.000000 1.000000
vt 0.000000 1.000000
vt 0.000000 0.000000
vt 1.000000 0.000000
vt 1.000000 1.000000
vt 0.000000 1.000000
vt 0.000000 0.000000
vt 1.000000 0.000000
vt 1.000000 1.000000
vt 0.000000 1.000000
vt 0.000000 0.000000
vt 1.000000 0.000000
vt 1.000000 1.000000
vt 0.000000 1.000000
vt 0.000000 0.000000
vt 1.000000 0.000000
vt 1.000000 1.000000
vt 0.000000 1.000000
vt 0.500000 1.000000
vt 0.793893 0.904508
vt 0.975528 0.654508
vt 0.975528 0.345491
vt 0.793893 0.095491
vt 0.500000 0.000000
vt 0.206107 0.095492
vt 0.024472 0.345491
vt 0.024472 0.654509
vt 0.206108 0.904509
vt 0.000000 0.000000
vt 1.000000 0.000000
vt 1.000000 1.000000
vt 0.000000 1.000000
vt 0.000000 0.000000
vt 1.000000 0.000000
vt 1.000000 1.000000
vt 0.000000 1.000000
vt 0.000000 0.000000
vt 1.000000 0.000000
vt 1.000000 1.000000
vt 0.000000 1.000000
vt 0.000000 0.000000
vt 1.000000 0.000000
vt 1.000000 1.000000
vt 0.000000 1.000000
vt 0.000000 0.000000
vt 1.000000 0.000000
vt 1.000000 1.000000
vt 0.000000 1.000000
vt 0.000000 0.000000
vt 1.000000 0.000000
vt 1.000000 1.000000
vt 0.000000 1.000000
vt 0.000000 0.000000
vt 1.000000 0.000000
vt 1.000000 1.000000
vt 0.000000 1.000000
vt 0.000000 0.000000
vt 1.000000 0.000000
vt 1.000000 1.000000
vt 0.000000 1.000000
vt 0.000000 0.000000
vt 1.000000 0.000000
vt 1.000000 1.000000
vt 0.000000 1.000000
vt 0.000000 0.000000
vt 1.000000 0.000000
vt 1.000000 1.000000
vt 0.000000 1.000000
vt 0.000000 0.000000
vt 1.000000 0.000000
vt 1.000000 1.000000
vt 0.000000 1.000000
vt 0.000000 0.000000
vt 1.000000 0.000000
vt 1.000000 1.000000
vt 0.000000 1.000000
vt 0.000000 0.000000
vt 1.000000 0.000000
vt 1.000000 1.000000
vt 0.000000 1.000000
vt 0.000000 0.000000
vt 1.000000 0.000000
vt 1.000000 1.000000
vt 0.000000 1.000000
vt 0.000000 0.000000
vt 1.000000 0.000000
vt 1.000000 1.000000
vt 0.000000 1.000000
vt 0.000000 0.000000
vt 1.000000 0.000000
vt 1.000000 1.000000
vt 0.000000 1.000000
vt 0.000000 0.000000
vt 1.000000 0.000000
vt 1.000000 1.000000
vt 0.000000 1.000000
vt 0.000000 0.000000
vt 1.000000 0.000000
vt 1.000000 1.000000
vt 0.000000 1.000000
vt 0.000000 0.000000
vt 1.000000 0.000000
vt 1.000000 1.000000
vt 0.000000 1.000000
vt 0.000000 0.000000
vt 1.000000 0.000000
vt 1.000000 1.000000
vt 0.000000 1.000000
vt 0.000000 0.000000
vt 1.000000 0.000000
vt 1.000000 1.000000
vt 0.000000 1.000000
vt 0.000000 0.000000
vt 1.000000 0.000000
vt 1.000000 1.000000
vt 0.000000 1.000000
vt 0.000000 0.000000
vt 1.000000 0.000000
vt 1.000000 1.000000
vt 0.000000 1.000000
vt 0.000000 0.000000
vt 1.000000 0.000000
vt 1.000000 1.000000
vt 0.000000 1.000000
vt 0.000000 0.000000
vt 1.000000 0.000000
vt 1.000000 1.000000
vt 0.000000 1.000000
vt 0.000000 0.000000
vt 1.000000 0.000000
vt 1.000000 1.000000
vt 0.000000 1.000000
vt 0.000000 0.000000
vt 1.000000 0.000000
vt 1.000000 1.000000
vt 0.000000 1.000000
vt 0.000000 0.000000
vt 1.000000 0.000000
vt 1.000000 1.000000
vt 0.000000 1.000000
vt 0.000000 0.000000
vt 1.000000 0.000000
vt 1.000000 1.000000
vt 0.000000 1.000000
vt 0.000000 0.000000
vt 1.000000 0.000000
vt 1.000000 1.000000
vt 0.000000 1.000000
vt 0.000000 0.000000
vt 1.000000 0.000000
vt 1.000000 1.000000
vt 0.000000 1.000000
vt 0.000000 0.000000
vt 1.000000 0.000000
vt 1.000000 1.000000
vt 0.000000 1.000000
vt 0.000000 0.000000
vt 1.000000 0.000000
vt 1.000000 1.000000
vt 0.000000 1.000000
vt 0.000000 0.000000
vt 1.000000 0.000000
vt 1.000000 1.000000
vt 0.000000 1.000000
vt 0.000000 0.000000
vt 1.000000 0.000000
vt 1.000000 1.000000
vt 0.000000 1.000000
vt 0.000000 0.000000
vt 1.000000 0.000000
vt 1.000000 1.000000
vt 0.000000 1.000000
vt 0.000000 0.000000
vt 1.000000 0.000000
vt 1.000000 1.000000
vt 0.000000 1.000000
vt 0.000000 0.000000
vt 1.000000 0.000000
vt 1.000000 1.000000
vt 0.000000 1.000000
vt 0.000000 0.000000
vt 1.000000 0.000000
vt 1.000000 1.000000
vt 0.000000 1.000000
vt 0.000000 0.000000
vt 1.000000 0.000000
vt 1.000000 1.000000
vt 0.000000 1.000000
vt 0.000000 0.000000
vt 1.000000 0.000000
vt 1.000000 1.000000
vt 0.000000 1.000000
vt 0.000000 0.000000
vt 1.000000 0.000000
vt 1.000000 1.000000
vt 0.000000 1.000000
vt 0.500000 1.000000
vt 0.793893 0.904508
vt 0.975528 0.654508
vt 0.975528 0.345491
vt 0.793893 0.095491
vt 0.500000 0.000000
vt 0.206107 0.095492
vt 0.024472 0.345491
vt 0.024472 0.654509
vt 0.206108 0.904509
vt 1.000000 0.000000
vt 1.000000 1.000000
vt 0.000000 1.000000
vt 1.000000 0.000000
vt 1.000000 0.000000
vt 1.000000 1.000000
vt 1.000000 0.000000
vt 1.000000 1.000000
vt 1.000000 0.000000
vt 1.000000 1.000000
vt 1.000000 0.000000
vt 1.000000 1.000000
vt 1.000000 0.000000
vt 1.000000 1.000000
vt 1.000000 0.000000
vt 1.000000 1.000000
vt 1.000000 0.000000
vt 1.000000 1.000000
vt 1.000000 0.000000
vt 1.000000 1.000000
vt 0.000000 0.000000
vt 1.000000 0.000000
vt 1.000000 1.000000
vt 0.000000 1.000000
vt 0.000000 0.000000
vt 0.000000 1.000000
vt 0.000000 0.000000
vt 0.000000 1.000000
vt 0.000000 0.000000
vt 0.000000 1.000000
vt 0.000000 0.000000
vt 0.000000 1.000000
vt 0.000000 0.000000
vt 0.000000 1.000000
vt 0.000000 0.000000
vt 0.000000 1.000000
vt 0.000000 0.000000
vt 0.000000 1.000000
vt 0.500000 1.000000
vt 0.793893 0.904508
vt 0.975528 0.654508
vt 0.975528 0.345491
vt 0.793893 0.095491
vt 0.500000 0.000000
vt 0.206107 0.095492
vt 0.024472 0.345491
vt 0.024472 0.654509
vt 0.206108 0.904509
vt 0.000000 0.000000
vt 0.000000 1.000000
vt 0.000000 0.000000
vt 0.000000 1.000000
vt 0.000000 0.000000
vt 1.000000 0.000000
vt 1.000000 1.000000
vt 0.000000 1.000000
vt 0.000000 0.000000
vt 1.000000 0.000000
vt 1.000000 1.000000
vt 0.000000 1.000000
vt 0.000000 0.000000
vt 1.000000 0.000000
vt 1.000000 1.000000
vt 0.000000 1.000000
vt 0.000000 0.000000
vt 1.000000 0.000000
vt 1.000000 1.000000
vt 0.000000 1.000000
vt 0.000000 0.000000
vt 1.000000 0.000000
vt 1.000000 1.000000
vt 0.000000 1.000000
vt 0.000000 0.000000
vt 1.000000 0.000000
vt 1.000000 1.000000
vt 0.000000 1.000000
vt 0.000000 0.000000
vt 1.000000 0.000000
vt 1.000000 1.000000
vt 0.000000 1.000000
vt 0.000000 0.000000
vt 1.000000 0.000000
vt 1.000000 1.000000
vt 0.000000 1.000000
vt 0.000000 0.000000
vt 1.000000 0.000000
vt 1.000000 1.000000
vt 0.000000 1.000000
vt 0.000000 0.000000
vt 1.000000 0.000000
vt 1.000000 1.000000
vt 0.000000 1.000000
vn 0.4077 0.1337 -0.9033
vn 0.7331 0.1337 -0.6669
vn 0.9851 0.1337 0.1086
vn 0.8608 0.1337 0.4911
vn 0.2011 0.1337 0.9704
vn -0.2011 0.1337 0.9704
vn -0.8608 0.1337 0.4911
vn -0.9851 0.1337 0.1086
vn 0.0000 0.0000 1.0000
vn -0.7331 0.1337 -0.6669
vn -0.4077 0.1337 -0.9033
vn 0.4857 -0.4494 0.7498
vn 0.5630 -0.4494 0.6936
vn 0.8632 -0.4494 -0.2302
vn 0.8336 -0.4494 -0.3211
vn 0.0478 -0.4494 -0.8921
vn -0.0478 -0.4494 -0.8921
vn -0.8336 -0.4494 -0.3211
vn -0.8632 -0.4494 -0.2302
vn -0.5630 -0.4494 0.6936
vn -0.4857 -0.4494 0.7498
vn 0.2435 0.1529 -0.9578
vn 0.8356 0.1529 -0.5276
vn 0.9861 0.1529 -0.0644
vn 0.7600 0.1529 0.6317
vn 0.3659 0.1529 0.9180
vn -0.3659 0.1529 0.9180
vn -0.7600 0.1529 0.6317
vn -0.9861 0.1529 -0.0644
vn -0.8356 0.1529 -0.5276
vn -0.2435 0.1529 -0.9578
vn 0.0117 -0.6296 0.7768
vn 0.7352 -0.6296 0.2512
vn 0.7424 -0.6296 0.2289
vn 0.4661 -0.6296 -0.6216
vn 0.4472 -0.6296 -0.6354
vn -0.4472 -0.6296 -0.6354
vn -0.4661 -0.6296 -0.6216
vn -0.7424 -0.6296 0.2289
vn -0.7352 -0.6296 0.2512
vn -0.0117 -0.6296 0.7768
vn 0.3494 0.1411 -0.9263
vn 0.7730 0.1411 -0.6185
vn 0.9889 0.1411 0.0461
vn 0.8271 0.1411 0.5440
vn 0.2618 0.1411 0.9548
vn -0.2618 0.1411 0.9548
vn -0.8271 0.1411 0.5440
vn -0.9889 0.1411 0.0461
vn -0.7730 0.1411 -0.6185
vn -0.3494 0.1411 -0.9263
vn 0.0000 1.0000 0.0000
vn 0.3328 0.7395 -0.5851
vn 0.4536 0.7395 -0.4973
vn -0.4536 0.7395 -0.4973
vn -0.3328 0.7395 -0.5851
vn -0.6132 0.7395 0.2777
vn -0.6593 0.7395 0.1357
vn 0.0747 0.7395 0.6690
vn -0.0747 0.7395 0.6690
vn 0.6593 0.7395 0.1357
vn 0.6132 0.7395 0.2777
vn 0.8060 0.0865 -0.5856
vn 0.3079 0.0865 -0.9475
vn 0.9962 0.0865 0.0000
vn 0.8060 0.0865 0.5856
vn 0.3079 0.0865 0.9475
vn -0.3079 0.0865 0.9475
vn -0.8060 0.0865 0.5856
vn -0.9962 0.0865 0.0000
vn 0.0000 -1.0000 -0.0000
vn -0.8060 0.0865 -0.5856
vn -0.3079 0.0865 -0.9475
vn -0.2866 0.3736 -0.8822
vn -0.7504 0.3736 -0.5452
vn -0.9276 0.3736 0.0000
vn -0.7504 0.3736 0.5452
vn -0.2866 0.3736 0.8822
vn 0.2866 0.3736 0.8822
vn 0.7504 0.3736 0.5452
vn 0.9276 0.3736 0.0000
vn 0.2866 0.3736 -0.8822
vn 0.7504 0.3736 -0.5452
usemtl Green
s off
f 21/1/1 2/2/1 4/3/1 22/4/1
f 22/5/2 4/6/2 6/7/2 23/8/2
f 23/9/3 6/10/3 8/11/3 24/12/3
f 24/13/4 8/14/4 10/15/4 25/16/4
f 25/17/5 10/18/5 12/19/5 26/20/5
f 26/21/6 12/22/6 14/23/6 27/24/6
f 27/25/7 14/26/7 16/27/7 28/28/7
f 28/29/8 16/30/8 18/31/8 29/32/8
f 4/33/9 2/34/9 20/35/9 18/36/9 16/37/9 14/38/9 12/39/9 10/40/9 8/41/9 6/42/9
f 29/43/10 18/44/10 20/45/10 30/46/10
f 30/47/11 20/48/11 2/49/11 21/50/11
f 39/51/12 30/52/12 21/53/12 40/54/12
f 38/55/13 29/56/13 30/57/13 39/58/13
f 37/59/14 28/60/14 29/61/14 38/62/14
f 36/63/15 27/64/15 28/65/15 37/66/15
f 35/67/16 26/68/16 27/69/16 36/70/16
f 34/71/17 25/72/17 26/73/17 35/74/17
f 33/75/18 24/76/18 25/77/18 34/78/18
f 32/79/19 23/80/19 24/81/19 33/82/19
f 31/83/20 22/84/20 23/85/20 32/86/20
f 40/87/21 21/88/21 22/89/21 31/90/21
f 50/91/22 40/92/22 31/93/22 41/94/22
f 41/95/23 31/96/23 32/97/23 42/98/23
f 42/99/24 32/100/24 33/101/24 43/102/24
f 43/103/25 33/104/25 34/105/25 44/106/25
f 44/107/26 34/108/26 35/109/26 45/110/26
f 45/111/27 35/112/27 36/113/27 46/114/27
f 46/115/28 36/116/28 37/117/28 47/118/28
f 47/119/29 37/120/29 38/121/29 48/122/29
f 48/123/30 38/124/30 39/125/30 49/126/30
f 49/127/31 39/128/31 40/129/31 50/130/31
f 59/131/32 49/132/32 50/133/32 60/134/32
f 58/135/33 48/136/33 49/137/33 59/138/33
f 57/139/34 47/140/34 48/141/34 58/142/34
f 56/143/35 46/144/35 47/145/35 57/146/35
f 55/147/36 45/148/36 46/149/36 56/150/36
f 54/151/37 44/152/37 45/153/37 55/154/37
f 53/155/38 43/156/38 44/157/38 54/158/38
f 52/159/39 42/160/39 43/161/39 53/162/39
f 51/163/40 41/164/40 42/165/40 52/166/40
f 60/167/41 50/168/41 41/169/41 51/170/41
f 1/171/42 60/172/42 51/173/42 3/174/42
f 3/175/43 51/176/43 52/177/43 5/178/43
f 5/179/44 52/180/44 53/181/44 7/182/44
f 7/183/45 53/184/45 54/185/45 9/186/45
f 9/187/46 54/188/46 55/189/46 11/190/46
f 11/191/47 55/192/47 56/193/47 13/194/47
f 13/195/48 56/196/48 57/197/48 15/198/48
f 15/199/49 57/200/49 58/201/49 17/202/49
f 17/203/50 58/204/50 59/205/50 19/206/50
f 19/207/51 59/208/51 60/209/51 1/210/51
f 69/211/52 71/212/52 73/213/52 75/214/52 77/215/52 80/216/52 61/217/52 63/218/52 65/219/52 67/220/52
f 5/179/53 3/221/53 75/222/53 73/223/53
f 1/171/54 77/224/54 75/222/54 3/174/54
f 19/207/55 80/225/55 77/226/55 1/210/55
f 17/203/56 61/227/56 80/228/56 19/206/56
f 15/199/57 63/229/57 61/230/57 17/202/57
f 13/195/58 65/231/58 63/232/58 15/198/58
f 11/191/59 67/233/59 65/234/59 13/194/59
f 9/187/60 69/235/60 67/236/60 11/190/60
f 7/183/61 71/237/61 69/238/61 9/186/61
f 5/179/62 73/239/62 71/240/62 7/182/62
usemtl Brown
f 84/241/63 75/242/63 73/243/63 83/244/63
f 85/245/64 77/224/64 75/222/64 84/246/64
f 83/247/65 73/239/65 71/240/65 82/248/65
f 82/249/66 71/237/66 69/238/66 81/250/66
f 81/251/67 69/235/67 67/236/67 86/252/67
f 86/253/68 67/233/68 65/234/68 87/254/68
f 87/255/69 65/231/69 63/232/69 88/256/69
f 88/257/70 63/229/70 61/230/70 89/258/70
f 74/259/71 72/260/71 70/261/71 68/262/71 66/263/71 64/264/71 62/265/71 79/266/71 78/267/71 76/268/71
f 89/269/72 61/227/72 80/228/72 90/270/72
f 90/271/73 80/225/73 77/226/73 85/272/73
f 79/273/74 90/274/74 85/275/74 78/276/74
f 62/277/75 89/278/75 90/279/75 79/280/75
f 64/281/76 88/282/76 89/283/76 62/284/76
f 66/285/77 87/286/77 88/287/77 64/288/77
f 68/289/78 86/290/78 87/291/78 66/292/78
f 70/293/79 81/294/79 86/295/79 68/296/79
f 72/297/80 82/298/80 81/299/80 70/300/80
f 74/301/81 83/302/81 82/303/81 72/304/81
f 78/305/82 85/306/82 84/307/82 76/308/82
f 76/309/83 84/310/83 83/311/83 74/312/83
