{
    "asset" : {
        "generator" : "Khronos glTF Blender I/O v1.4.40",
        "version" : "2.0"
    },
    "scene" : 0,
    "scenes" : [
        {
            "name" : "Scene",
            "nodes" : [
                0
            ]
        }
    ],
    "nodes" : [
        {
            "mesh" : 0,
            "name" : "HeadTrack"
        }
    ],
    "materials" : [
        {
            "doubleSided" : true,
            "emissiveFactor" : [
                1,
                1,
                1
            ],
            "emissiveTexture" : {
                "index" : 0,
                "texCoord" : 0
            },
            "name" : "Aggregate",
            "normalTexture" : {
                "index" : 1,
                "texCoord" : 0
            },
            "pbrMetallicRoughness" : {
                "baseColorTexture" : {
                    "index" : 2,
                    "texCoord" : 0
                },
                "metallicFactor" : 0,
                "metallicRoughnessTexture" : {
                    "index" : 3,
                    "texCoord" : 0
                }
            }
        }
    ],
    "meshes" : [
        {
            "name" : "HeadTrack",
            "primitives" : [
                {
                    "attributes" : {
                        "POSITION" : 0,
                        "NORMAL" : 1,
                        "TEXCOORD_0" : 2,
                        "COLOR_0" : 3
                    },
                    "indices" : 4,
                    "material" : 0
                }
            ]
        }
    ],
    "textures" : [
        {
            "sampler" : 0,
            "source" : 0
        },
        {
            "sampler" : 0,
            "source" : 1
        },
        {
            "sampler" : 0,
            "source" : 2
        },
        {
            "sampler" : 0,
            "source" : 3
        }
    ],
    "images" : [
        {
            "bufferView" : 5,
            "mimeType" : "image/png",
            "name" : "RemoteUser_Emission"
        },
        {
            "bufferView" : 6,
            "mimeType" : "image/png",
            "name" : "RemoteUser_Normal"
        },
        {
            "bufferView" : 7,
            "mimeType" : "image/png",
            "name" : "RemoteUser_Diffuse"
        },
        {
            "bufferView" : 8,
            "mimeType" : "image/png",
            "name" : "RemoteUser_Roughness"
        }
    ],
    "accessors" : [
        {
            "bufferView" : 0,
            "componentType" : 5126,
            "count" : 2390,
            "max" : [
                0.31806573271751404,
                0.2290806919336319,
                0.13949289917945862
            ],
            "min" : [
                -0.3264322876930237,
                -0.13949286937713623,
                -0.13949289917945862
            ],
            "type" : "VEC3"
        },
        {
            "bufferView" : 1,
            "componentType" : 5126,
            "count" : 2390,
            "type" : "VEC3"
        },
        {
            "bufferView" : 2,
            "componentType" : 5126,
            "count" : 2390,
            "type" : "VEC2"
        },
        {
            "bufferView" : 3,
            "componentType" : 5123,
            "count" : 2390,
            "normalized" : true,
            "type" : "VEC4"
        },
        {
            "bufferView" : 4,
            "componentType" : 5123,
            "count" : 3984,
            "type" : "SCALAR"
        }
    ],
    "bufferViews" : [
        {
            "buffer" : 0,
            "byteLength" : 28680,
            "byteOffset" : 0
        },
        {
            "buffer" : 0,
            "byteLength" : 28680,
            "byteOffset" : 28680
        },
        {
            "buffer" : 0,
            "byteLength" : 19120,
            "byteOffset" : 57360
        },
        {
            "buffer" : 0,
            "byteLength" : 19120,
            "byteOffset" : 76480
        },
        {
            "buffer" : 0,
            "byteLength" : 7968,
            "byteOffset" : 95600
        },
        {
            "buffer" : 0,
            "byteLength" : 42094,
            "byteOffset" : 103568
        },
        {
            "buffer" : 0,
            "byteLength" : 577548,
            "byteOffset" : 145664
        },
        {
            "buffer" : 0,
            "byteLength" : 608598,
            "byteOffset" : 723212
        },
        {
            "buffer" : 0,
            "byteLength" : 470544,
            "byteOffset" : 1331812
        }
    ],
    "samplers" : [
        {
            "magFilter" : 9729,
            "minFilter" : 9986
        }
    ],
    "buffers" : [
        {
            "byteLength" : 1802356,
            "uri" : "data:application/octet-stream;base64,"
        }
    ]
}
