{
    "asset" : {
        "generator" : "Khronos glTF Blender I/O v1.4.40",
        "version" : "2.0"
    },
    "scene" : 0,
    "scenes" : [
        {
            "name" : "Scene",
            "nodes" : [
                0
            ]
        }
    ],
    "nodes" : [
        {
            "mesh" : 0,
            "name" : "Navmesh",
            "rotation" : [
                0.7071068286895752,
                0,
                0,
                0.7071067094802856
            ]
        }
    ],
    "meshes" : [
        {
            "name" : "Navmesh",
            "primitives" : [
                {
                    "attributes" : {
                        "POSITION" : 0,
                        "NORMAL" : 1
                    },
                    "indices" : 2
                }
            ]
        }
    ],
    "accessors" : [
        {
            "bufferView" : 0,
            "componentType" : 5126,
            "count" : 117,
            "max" : [
                19.32403564453125,
                29.185951232910156,
                -0.06766688823699951
            ],
            "min" : [
                -19.375967025756836,
                -45.51405334472656,
                -3.067667007446289
            ],
            "type" : "VEC3"
        },
        {
            "bufferView" : 1,
            "componentType" : 5126,
            "count" : 117,
            "type" : "VEC3"
        },
        {
            "bufferView" : 2,
            "componentType" : 5123,
            "count" : 363,
            "type" : "SCALAR"
        }
    ],
    "bufferViews" : [
        {
            "buffer" : 0,
            "byteLength" : 1404,
            "byteOffset" : 0
        },
        {
            "buffer" : 0,
            "byteLength" : 1404,
            "byteOffset" : 1404
        },
        {
            "buffer" : 0,
            "byteLength" : 726,
            "byteOffset" : 2808
        }
    ],
    "buffers" : [
        {
            "byteLength" : 3536,
            "uri" : "data:application/octet-stream;base64,"
        }
    ]
}
